SplineFontDB: 3.0
FontName: FifthLeg-Expanded-Bold
FullName: FifthLeg Expanded Bold
FamilyName: FifthLeg
Weight: Bold
Copyright: Designed by Jakub Steiner <jimmac@gmail.com> with FontForge 2.0\n\nhttp://jimmac.musichall.cz\n
UComments: "2008-8-26: Created." 
Version: 0.1
ItalicAngle: 0
UnderlinePosition: 122
UnderlineWidth: 49
Ascent: 800
Descent: 200
LayerCount: 2
Layer: 0 0 "Back" 
Layer: 1 0 "Fore" 
XUID: [1021 332 1867756345 9837774]
FSType: 4
OS2Version: 2
OS2_WeightWidthSlopeOnly: 0
OS2_UseTypoMetrics: 1
CreationTime: 1219682457
ModificationTime: 1240420911
PfmFamily: 33
TTFWeight: 700
TTFWidth: 7
LineGap: 0
VLineGap: 0
Panose: 0 0 4 0 0 0 0 0 0 0
OS2TypoAscent: -300
OS2TypoAOffset: 1
OS2TypoDescent: 75
OS2TypoDOffset: 1
OS2TypoLinegap: 0
OS2WinAscent: 0
OS2WinAOffset: 1
OS2WinDescent: 0
OS2WinDOffset: 1
HheadAscent: 0
HheadAOffset: 1
HheadDescent: 0
HheadDOffset: 1
OS2SubXSize: 500
OS2SubYSize: 500
OS2SubXOff: 0
OS2SubYOff: -62
OS2SupXSize: 500
OS2SupYSize: 500
OS2SupXOff: 0
OS2SupYOff: 500
OS2StrikeYSize: 50
OS2StrikeYPos: 199
OS2FamilyClass: 2048
OS2Vendor: 'SUSE'
OS2CodePages: 00000001.00000000
OS2UnicodeRanges: 80000001.00000000.00000000.00000000
Lookup: 258 0 0 "Pairwise Positioning (kerning) in Latin lookup 0"  {"Pairwise Positioning (kerning) in Latin lookup 0-1"  "Pairwise Positioning (kerning) in Latin lookup 0-2"  "Pairwise Positioning (kerning) in Latin lookup 0-3"  } ['def ' ('DFLT' <'dflt' > 'latn' <'dflt' > ) ]
DEI: 0

StartChar: b
Encoding: 98 98 0
Width: 597
VWidth: 0
Flags: W
HStem: -5.06445 148.064<310.188 414.724> 403 148.1<315.469 414.955>
VStem: 51 143<0 52 156 403 487.5 722.579> 415 143.04<143.005 156.65 156.65 403>
LayerCount: 2
Fore
SplineSet
194 793 m 1
 194 487.5 l 1
 363 546 l 6
 375.191 549.482 387.615 551.1 399.994 551.1 c 4
 480.009 551.1 558.04 483.54 558.04 415.919 c 6
 558.04 130 l 6
 558.04 63.04 479.848 -5.06445 399.746 -5.06445 c 4
 387.45 -5.06445 375.109 -3.45898 363 0 c 6
 194 52 l 1
 194 0 l 1
 51 0 l 1
 51 637 l 2
 51 741 122.5 793 194 793 c 1
207 403 m 2
 200.5 403 194 396.5 194 390 c 2
 194 156 l 2
 194.317 149.962 199.92 142.989 206.55 142.989 c 0
 206.699 142.989 206.85 143 207 143 c 2
 402 143 l 6
 408.5 143 415 149.5 415 156.65 c 6
 415 390 l 6
 415 396.5 408.5 403 402 403 c 6
 207 403 l 2
EndSplineSet
Validated: 1
EndChar

StartChar: h
Encoding: 104 104 1
Width: 572
VWidth: 0
Flags: W
HStem: -0.0410156 21G<51 194 389 532.04> 403 148.777<299.016 385.773>
VStem: 51 143<0 403 487.5 722.579> 389 143.04<-0.0410156 403>
LayerCount: 2
Fore
SplineSet
194 793 m 1
 194 487.5 l 1
 337 546 l 2
 347.795 549.926 359.777 551.777 372.339 551.777 c 0
 442.979 551.777 532.007 493.247 532.04 415.919 c 2
 532.04 -0.0410156 l 1
 389 -0.0410156 l 1
 389 390 l 2
 389 396.5 382.5 403 376 403 c 2
 207 403 l 2
 200.5 403 194 396.5 194 390 c 2
 194 0 l 1
 51 0 l 1
 51 637 l 2
 51 741 122.5 793 194 793 c 1
EndSplineSet
Validated: 1
EndChar

StartChar: m
Encoding: 109 109 2
Width: 823
VWidth: 0
Flags: W
HStem: 0 21G<42 185 340.96 484 639.96 783> 403.081 148.607<261.781 340.955 559.608 639.955>
VStem: 42 143<0 403.081 499.362 546> 340.96 143.04<0 403.081> 639.96 143.04<0 403.081>
LayerCount: 2
Fore
SplineSet
344.169 551.688 m 0
 344.469 551.688 l 0
 395.804 551.688 437.542 526.944 461.575 490.669 c 1
 601 546.285 l 2
 615.734 549.969 629.947 551.688 643.489 551.688 c 0
 725.536 551.688 783 488.528 783 416 c 2
 783 0 l 1
 639.96 0 l 1
 639.96 390.081 l 2
 639.96 396.581 633.46 403.081 626.96 403.081 c 2
 497 403.081 l 2
 490.221 402.851 484 396.336 484 389.902 c 2
 484 0 l 1
 340.96 0 l 1
 340.96 390.081 l 2
 340.96 396.581 334.46 403.081 327.96 403.081 c 2
 198 403.081 l 2
 191.581 403 185.081 396.419 185 389.919 c 2
 185 389.919 185 129.967 185 0 c 1
 42 0 l 1
 42 546 l 1
 185 546 l 1
 185 499.362 l 1
 302 546.285 l 2
 316.625 549.94 330.717 551.661 344.169 551.688 c 0
EndSplineSet
Validated: 1
EndChar

StartChar: a
Encoding: 97 97 3
Width: 572
VWidth: 0
Flags: W
HStem: -7.19922 147.114<169.9 257.889> 218.661 130.017<169.9 281.923> 403 143<157.349 388.191>
VStem: 26.9004 143<139.915 218.661> 390.9 143<0 48.9531 139.915 218.661 305.419 400.291>
LayerCount: 2
Fore
SplineSet
208.9 546 m 2
 325.9 546 l 2
 455.9 546 533.9 468 533.9 338 c 2
 533.9 0 l 1
 390.9 0 l 1
 390.9 48.9531 l 1
 201.729 0.0175781 l 2
 182.481 -4.89648 164.959 -7.19922 149.096 -7.19922 c 0
 64.2559 -7.19922 26.9004 58.665 26.9004 143 c 2
 26.9004 236.6 l 2
 26.9004 311.317 70.9463 348.678 146.367 348.678 c 0
 163.479 348.678 182.206 346.754 202.4 342.907 c 2
 390.9 305.419 l 1
 390.9 390 l 2
 390.737 396.5 384.237 402.838 377.9 403 c 2
 117.9 403 l 1
 117.9 403 117.891 403.464 117.891 404.34 c 0
 117.891 418.831 120.411 546 208.9 546 c 2
169.9 205.661 m 2
 169.9 153.24 l 2
 169.9 146.732 176.716 139.915 182.9 139.915 c 2
 390.9 139.915 l 1
 390.9 218.661 l 1
 183.225 218.661 l 2
 176.067 218.661 169.9 212.819 169.9 205.661 c 2
EndSplineSet
Validated: 1
EndChar

StartChar: u
Encoding: 117 117 4
Width: 591
VWidth: 0
Flags: W
HStem: -2.00781 145.07<185 305.768>
VStem: 42 143<143.062 546> 406 143<0 41.0723 143.062 156 156 546>
LayerCount: 2
Fore
SplineSet
42 546 m 1
 185 546 l 1
 185 156.104 l 2
 185 149.604 191.54 143.062 198.04 143.062 c 2
 393 143.062 l 2
 399.665 143.062 405.886 149.681 406 156 c 2
 406 546 l 1
 549 546 l 1
 549 0 l 1
 406 0 l 1
 406 41.0723 l 1
 237.189 5.51465 l 2
 210.991 0.4375 187.87 -2.00781 167.573 -2.00781 c 0
 76.1035 -2.00781 42 47.665 42 130 c 2
 42 546 l 1
EndSplineSet
Validated: 1
EndChar

StartChar: r
Encoding: 114 114 6
Width: 550
VWidth: 0
Flags: W
HStem: 0 21G<42 185> 403 145.65<257.902 440.317>
VStem: 42 143<0 403 505.7 546>
LayerCount: 2
Fore
SplineSet
185 546 m 1
 185 505.7 l 1
 311.1 542.1 l 2
 326.194 546.572 341.53 548.65 356.695 548.65 c 0
 442.62 548.65 523.062 481.892 523.062 405.218 c 0
 523.062 404.479 523.056 403.739 523.04 403 c 1
 198 403 l 2
 191.5 403 185 396.5 185 390 c 2
 185 0 l 1
 42 0 l 1
 42 546 l 1
 185 546 l 1
EndSplineSet
Validated: 1
EndChar

StartChar: g
Encoding: 103 103 7
Width: 599
VWidth: 0
Flags: W
HStem: -241.199 143<170.449 400.326> -4.87793 147.878<183 295.023> 401.771 144.228<183 270.989>
VStem: 40 143<143 399.74> 404 143<-96.7067 38.3818 143 401.771 489.848 546>
LayerCount: 2
Fore
SplineSet
222 -241.199 m 2
 133.512 -241.199 130.991 -114.033 130.991 -99.54 c 0
 130.991 -98.6641 131 -98.1992 131 -98.1992 c 1
 391 -98.1992 l 2
 397.338 -98.0371 403.838 -91.6992 404 -85.1992 c 2
 404 38.3818 l 1
 215.5 0.892578 l 2
 195.306 -2.9541 176.579 -4.87793 159.468 -4.87793 c 0
 84.0459 -4.87793 40 32.4834 40 107.2 c 2
 40 395.801 l 2
 40 480.136 77.3535 545.999 162.196 545.999 c 0
 178.059 545.999 195.58 543.696 214.829 538.782 c 2
 404 489.848 l 1
 404 546 l 1
 547 546 l 1
 547 -87.7998 l 2
 547 -184.034 484.638 -241.199 396.2 -241.199 c 2
 222 -241.199 l 2
183 156 m 2
 183 148.842 189.167 143 196.325 143 c 2
 404 143 l 1
 404 401.771 l 1
 196 401.771 l 2
 189.815 401.771 183 394.956 183 388.446 c 2
 183 156 l 2
EndSplineSet
Validated: 1
EndChar

StartChar: o
Encoding: 111 111 8
Width: 634
VWidth: 0
Flags: W
HStem: -9.09961 143<181.468 451.532> 404.3 141.7<181.468 451.532>
VStem: 37 143.081<135.367 402.801> 452.919 143.081<135.367 402.801>
LayerCount: 2
Fore
SplineSet
207.503 546 m 2
 425.497 546 l 2
 519.964 546 596 471.265 596 376.797 c 2
 596 161.402 l 2
 596 66.9365 519.964 -9.09961 425.497 -9.09961 c 2
 207.503 -9.09961 l 2
 113.036 -9.09961 37 66.9365 37 161.402 c 2
 37 376.797 l 2
 37 471.265 113.036 546 207.503 546 c 2
193 404.3 m 2
 185.85 404.3 180.081 398.53 180.081 391.381 c 2
 180.081 146.819 l 2
 180.081 139.669 185.85 133.9 193 133.9 c 2
 440 133.9 l 2
 447.15 133.9 452.919 139.669 452.919 146.819 c 2
 452.919 391.381 l 2
 452.919 398.53 447.15 404.3 440 404.3 c 2
 193 404.3 l 2
EndSplineSet
Validated: 1
EndChar

StartChar: d
Encoding: 100 100 9
Width: 612
VWidth: 0
Flags: W
HStem: -5.06445 148.064<182.317 286.853> 403 148.1<182.087 281.389>
VStem: 39 143.04<143 403> 403.04 143<0 52 142.994 156 156 403 487.5 726.683>
LayerCount: 2
Fore
SplineSet
546.04 793 m 1
 546.04 0 l 1
 403.04 0 l 1
 403.04 52 l 1
 234.04 0 l 6
 221.931 -3.45898 209.59 -5.06445 197.295 -5.06445 c 4
 117.192 -5.06445 39 63.04 39 130 c 6
 39 415.919 l 6
 39 483.54 117.032 551.1 197.048 551.1 c 4
 209.425 551.1 221.851 549.482 234.04 546 c 6
 402.391 487.5 l 1
 402.391 637 l 2
 402.391 742.952 468.69 793 546.04 793 c 1
390.04 403 m 2
 195.04 403 l 6
 188.54 403 182.04 396.5 182.04 390 c 6
 182.04 156.65 l 6
 182.04 149.5 188.54 143 195.04 143 c 6
 390.04 143 l 2
 390.191 143 390.341 142.989 390.49 142.989 c 0
 397.12 142.989 402.723 149.962 403.04 156 c 2
 403.04 390 l 2
 403.04 396.5 396.54 403 390.04 403 c 2
EndSplineSet
Validated: 1
EndChar

StartChar: s
Encoding: 115 115 10
Width: 584
VWidth: 0
Flags: W
HStem: -1.27246 132.599<78.5813 399.198> 216.812 112.094<179 402.6> 412.129 132.6<179.004 499.237>
VStem: 36 143<332.025 349.599 349.599 412.129> 402.6 143<133.311 144.284 144.284 214.85>
LayerCount: 2
Fore
SplineSet
36 427.729 m 2
 37.5645 490.304 88.2656 544.729 179 544.729 c 2
 434.6 544.729 l 2
 497.652 543.622 538.6 502.836 538.6 412.129 c 1
 192 412.129 l 2
 184.632 412.129 179 405.925 179 399.03 c 2
 179 341.435 l 2
 179 335.646 185.159 328.906 191.393 328.906 c 0
 191.596 328.906 191.799 328.913 192 328.928 c 2
 402.6 328.928 l 2
 479.027 328.928 545.6 285.84 545.6 207.62 c 2
 545.6 141.728 l 2
 545.6 50.7275 493.6 -1.27246 389.6 -1.27246 c 2
 137 -1.27246 l 6
 69.585 -1.27246 46 53.291 46 131.327 c 5
 389.6 131.327 l 2
 396.495 131.327 402.6 137.391 402.6 144.284 c 2
 402.6 205.4 l 2
 402.6 211.604 396.035 216.812 389.6 216.812 c 2
 179 216.812 l 2
 99.1553 216.812 36 272.942 36 349.599 c 2
 36 427.729 l 2
EndSplineSet
Validated: 1
EndChar

StartChar: e
Encoding: 101 101 11
Width: 606
VWidth: 0
Flags: W
HStem: -10.4004 143<181.352 458.663> 224.94 98.76<179.081 427.503> 410.8 135.2<180.468 426.035>
VStem: 36 143.081<133.462 171.6 171.6 224.94 323.7 409.946> 427.503 143<323.7 409.946>
LayerCount: 2
Fore
SplineSet
206.503 546 m 2
 400 546 l 2
 494.467 546 570.503 469.964 570.503 375.497 c 2
 570.503 224.94 l 1
 179.081 224.94 l 1
 179.081 159.9 l 2
 179.081 144.3 189.4 132.6 205 132.6 c 2
 363.6 132.6 l 1
 519.6 132.6 l 1
 519.6 41.5996 467.6 -10.4004 363.6 -10.4004 c 2
 205 -10.4004 l 2
 101 -10.4004 36 80.5996 36 171.6 c 2
 36 375.497 l 2
 36 469.964 112.036 546 206.503 546 c 2
205 410.8 m 2
 192 410.8 179 397.8 179 384.8 c 2
 179 323.7 l 1
 427.503 323.7 l 1
 427.503 384.8 l 2
 427.503 397.8 414.503 410.8 401.503 410.8 c 2
 205 410.8 l 2
EndSplineSet
Validated: 1
EndChar

StartChar: f
Encoding: 102 102 12
Width: 406
VWidth: 0
Flags: W
HStem: 0 21G<51.0205 194.021> 429 117<194.021 336.695> 656.5 123.5<194.74 397.756>
VStem: 51.0205 143<0 429 546 654.102>
LayerCount: 2
Fore
SplineSet
213.521 780 m 2
 415.021 780 l 1
 415.021 734.5 l 2
 415.021 669.5 375.562 656.5 330.521 656.5 c 2
 213.521 656.5 l 2
 200.521 656.5 194.021 650 194.021 637 c 2
 194.021 546 l 1
 291.521 546 l 2
 323.929 546 350.021 519.909 350.021 487.5 c 0
 350.021 455.091 323.929 429 291.521 429 c 2
 194.021 429 l 1
 194.021 0 l 1
 51.0205 0 l 1
 51.0205 637 l 2
 51.0068 637.852 51 638.701 51 639.549 c 0
 51 718.286 110.629 780 213.521 780 c 2
EndSplineSet
Validated: 1
EndChar

StartChar: t
Encoding: 116 116 13
Width: 471
VWidth: 0
Flags: W
HStem: 0 21G<140 283> 403 143<43.8961 140 283 418.104>
VStem: 140 143<0 403 546 759.104>
LayerCount: 2
Fore
SplineSet
211.5 780 m 4
 251.111 780 283 748.111 283 708.5 c 6
 283 546 l 5
 367.5 546 l 6
 407.111 546 439 514.111 439 474.5 c 6
 439 403 l 5
 283 403 l 5
 283 0 l 5
 140 0 l 5
 140 403 l 5
 94.5 403 l 6
 54.8896 403 23 434.889 23 474.5 c 4
 23 514.111 54.8896 546 94.5 546 c 6
 140 546 l 5
 140 708.5 l 6
 140 748.111 171.889 780 211.5 780 c 4
EndSplineSet
Validated: 1
EndChar

StartChar: i
Encoding: 105 105 14
Width: 262
VWidth: 0
Flags: W
HStem: 0 21G<52.6113 195.61> 625.3 144.3<73.1128 174.512>
VStem: 52.1504 144.3<0 525.104 645.45 748.312>
LayerCount: 2
Fore
SplineSet
124.11 546 m 0
 163.722 546 195.61 514.111 195.61 474.5 c 2
 195.61 0 l 1
 52.6113 0 l 1
 52.6113 474.5 l 2
 52.6113 514.111 84.5 546 124.11 546 c 0
196.45 696.8 m 4
 196.45 655.2 162.65 625.3 122.35 625.3 c 4
 84.6504 625.3 52.1504 655.2 52.1504 696.8 c 4
 52.1504 737.1 84.6504 769.6 122.35 769.6 c 4
 162.65 769.6 196.45 737.1 196.45 696.8 c 4
EndSplineSet
Validated: 1
EndChar

StartChar: v
Encoding: 118 118 15
Width: 565
VWidth: 0
Flags: W
HStem: 0 21G<220.404 332.703>
LayerCount: 2
Fore
SplineSet
91.7002 543.521 m 0
 118.295 543.112 143.506 527.771 155.44 501.922 c 2
 259.919 277.902 l 2
 272.823 242.54 276.705 207.715 276.705 207.715 c 1
 276.705 207.715 280.821 242.699 295.121 278.449 c 2
 398.297 501.922 l 2
 410.396 528.132 436.143 543.535 463.139 543.535 c 0
 473.184 543.535 483.403 541.403 493.155 536.9 c 0
 519.366 524.8 534.77 499.032 534.77 472.024 c 0
 534.77 461.975 532.637 451.753 528.135 442 c 2
 323.441 0 l 1
 229.634 0 l 1
 25.6436 442 l 2
 21.1357 451.763 19.001 461.995 19.001 472.056 c 0
 19.001 499.052 34.3809 524.805 60.5811 536.9 c 0
 70.3398 541.406 80.5498 543.53 90.6025 543.53 c 0
 90.9688 543.53 91.334 543.527 91.7002 543.521 c 0
EndSplineSet
Validated: 1
EndChar

StartChar: q
Encoding: 113 113 17
Width: 613
VWidth: 0
Flags: W
HStem: -4.87793 147.878<183 295.023> 401.771 144.229<183 270.989>
VStem: 40 143<143 399.74> 404 143<-241.228 38.3818 143 401.771 489.848 546>
LayerCount: 2
Fore
SplineSet
404 -241.228 m 1
 404 38.3818 l 1
 215.5 0.892578 l 6
 195.306 -2.9541 176.579 -4.87793 159.468 -4.87793 c 4
 84.0459 -4.87793 40 32.4834 40 107.2 c 6
 40 395.801 l 6
 40 480.136 77.3564 546 162.196 546 c 4
 178.059 546 195.581 543.697 214.829 538.782 c 6
 404 489.848 l 1
 404 546 l 1
 547 546 l 1
 547 -241.228 l 1
 404 -241.228 l 1
183 156 m 6
 183 148.842 189.167 143 196.325 143 c 6
 404 143 l 1
 404 401.771 l 1
 196 401.771 l 6
 189.815 401.771 183 394.956 183 388.446 c 6
 183 156 l 6
EndSplineSet
Validated: 1
EndChar

StartChar: p
Encoding: 112 112 18
Width: 589
VWidth: 0
Flags: W
HStem: -4.87793 147.878<293.977 405.996> 401.771 144.229<318.011 405.995>
VStem: 42 143<-241.228 38.3818 143 401.771 489.848 546> 406 143<143 156 156 399.74>
LayerCount: 2
Fore
SplineSet
185 -241.228 m 1
 42 -241.228 l 1
 42 546 l 1
 185 546 l 1
 185 489.848 l 1
 374.171 538.782 l 6
 393.419 543.697 410.941 546 426.804 546 c 4
 511.645 546 549 480.136 549 395.801 c 6
 549 107.2 l 6
 549 32.4834 504.953 -4.87793 429.532 -4.87793 c 4
 412.421 -4.87793 393.694 -2.9541 373.5 0.892578 c 6
 185 38.3818 l 1
 185 -241.228 l 1
406 156 m 6
 406 388.446 l 6
 406 394.956 399.184 401.771 393 401.771 c 6
 185 401.771 l 1
 185 143 l 1
 392.675 143 l 6
 399.833 143 406 148.842 406 156 c 6
EndSplineSet
Validated: 1
EndChar

StartChar: l
Encoding: 108 108 19
Width: 271
VWidth: 0
Flags: W
HStem: 0 78<195 229.731>
VStem: 52 143<78 759.104>
LayerCount: 2
Fore
SplineSet
123.5 780 m 0
 163.111 780 195 748.111 195 708.5 c 2
 195 78 l 1
 216.528 78 234 60.5273 234 39 c 2
 234 0 l 1
 173.333 0 112.667 0 52 0 c 1
 52 708.5 l 2
 52 748.111 83.8896 780 123.5 780 c 0
EndSplineSet
Validated: 1
EndChar

StartChar: k
Encoding: 107 107 20
Width: 625
VWidth: 0
Flags: W
HStem: 0 21G<51 194>
VStem: 51 143<0 259.838 423.272 722.579>
LayerCount: 2
Fore
SplineSet
194 793 m 1
 194 423.272 l 1
 445.794 568.83 l 2
 457.093 575.32 469.386 578.409 481.5 578.409 c 0
 506.213 578.409 530.176 565.556 543.415 542.506 c 0
 549.898 531.219 552.983 518.933 552.983 506.824 c 0
 552.983 482.088 540.11 458.089 517.05 444.845 c 2
 349.065 348.645 l 1
 594.035 54.4375 l 1
 538.662 9.38477 l 2
 525.301 -1.60645 509.207 -6.96387 493.221 -6.96387 c 0
 472.604 -6.96387 452.167 1.94531 437.994 19.1748 c 2
 225.322 277.753 l 1
 194 259.838 l 1
 194 0 l 1
 51 0 l 1
 51 637 l 2
 51 741 122.5 793 194 793 c 1
EndSplineSet
Validated: 1
EndChar

StartChar: j
Encoding: 106 106 21
Width: 287
VWidth: 0
Flags: W
HStem: 625.3 144.3<97.8123 199.212>
VStem: 76.8496 144.3<-98.9873 -39 -39 523.878 645.45 748.312>
LayerCount: 2
Fore
SplineSet
148.012 546 m 4
 187.623 546 219.512 514.111 219.512 474.5 c 6
 219.512 -39 l 6
 219.512 -67.666 212.943 -91.5928 190.843 -113.043 c 6
 69.126 -224.682 l 6
 53.4209 -243.351 34.415 -250.972 17.0781 -250.972 c 4
 -9.99609 -250.972 -33 -232.383 -33 -208.264 c 4
 -33 -199.919 -30.2461 -190.913 -23.957 -181.785 c 5
 58.499 -96.3164 l 5
 72.9131 -74.6963 76.832 -66.2939 76.832 -44.6318 c 4
 76.832 -42.8496 76.8057 -40.9766 76.7559 -39 c 5
 76.5127 -39 l 5
 76.5127 474.5 l 6
 76.5127 514.111 108.401 546 148.012 546 c 4
221.15 696.8 m 4
 221.15 655.2 187.35 625.3 147.05 625.3 c 4
 109.35 625.3 76.8496 655.2 76.8496 696.8 c 4
 76.8496 737.1 109.35 769.6 147.05 769.6 c 4
 187.35 769.6 221.15 737.1 221.15 696.8 c 4
EndSplineSet
Validated: 1
EndChar

StartChar: comma
Encoding: 44 44 22
Width: 314
VWidth: 0
Flags: W
HStem: -171.743 315.312<135.718 153.702>
VStem: 78 159.636<13.6819 116.405> 135.11 102.525<-61.0529 -9.70898>
LayerCount: 2
Fore
SplineSet
159.066 143.569 m 0xa0
 202.43 143.569 237.636 108.362 237.636 65 c 2xc0
 237.636 10.4824 l 2xa0
 237.636 -16.1709 229.526 -40.291 219.111 -56.6719 c 2
 151.592 -152.79 l 2
 140.27 -166.249 126.571 -171.743 114.078 -171.743 c 0
 94.5703 -171.743 78 -158.349 78 -140.967 c 0xc0
 78 -134.95 79.9854 -128.457 84.5205 -121.875 c 2
 128.314 -37.2529 l 1
 133.657 -30.1064 135.11 -23.751 135.11 -16.9492 c 0
 135.11 -14.6064 134.938 -12.209 134.691 -9.70898 c 1
 103.254 0.555664 80.5391 30.1426 80.5391 65 c 0
 80.5391 108.362 115.705 143.569 159.066 143.569 c 0xa0
EndSplineSet
Validated: 1
EndChar

StartChar: y
Encoding: 121 121 23
Width: 566
VWidth: 0
Flags: W
LayerCount: 2
Fore
SplineSet
91.7334 545.35 m 0
 118.332 545.302 143.759 530.327 156.042 504.645 c 2
 278.202 249.234 l 1
 400.361 504.645 l 2
 412.662 530.365 438.14 545.34 464.776 545.34 c 0
 475.148 545.34 485.696 543.069 495.71 538.28 c 0
 521.43 525.98 536.405 500.503 536.405 473.865 c 0
 536.405 463.494 534.136 452.948 529.348 442.935 c 2
 217.955 -208.162 l 2
 205.655 -233.883 180.177 -248.859 153.54 -248.859 c 0
 143.169 -248.859 132.623 -246.589 122.609 -241.8 c 2
 57.4131 -208.663 l 1
 205.28 96.7285 l 1
 193.962 103.692 184.408 113.86 178.225 126.791 c 2
 27.0586 442.935 l 2
 22.2695 452.948 20 463.494 20 473.865 c 0
 20 500.503 34.9756 525.98 60.6963 538.28 c 0
 70.7051 543.067 81.2373 545.35 91.6016 545.35 c 0
 91.7334 545.35 l 0
EndSplineSet
Validated: 1
EndChar

StartChar: c
Encoding: 99 99 24
Width: 554
VWidth: 0
Flags: W
HStem: -9.09961 141.497<181.653 461.984> 403 141.497<181.653 461.984>
VStem: 37 143.081<133.902 159.9 159.9 401.495>
LayerCount: 2
Fore
SplineSet
212.5 544.497 m 2
 401.081 544.497 l 2
 510.28 544.497 515.4 403 515.4 403 c 1
 193 403 l 2
 185.85 403 180.081 397.23 180.081 390.081 c 2
 180.081 145.315 l 2
 180.081 138.165 185.85 132.397 193 132.397 c 2
 515.4 132.397 l 1
 515.4 132.397 510.28 -9.09961 401.081 -9.09961 c 2
 212.5 -9.09961 l 2
 97.7383 -9.09961 37 65.4326 37 159.9 c 2
 37 375.497 l 2
 37 469.964 97.7383 544.497 212.5 544.497 c 2
EndSplineSet
Validated: 1
EndChar

StartChar: w
Encoding: 119 119 25
Width: 873
VWidth: 0
Flags: W
HStem: 0 21G<220.392 332.688 528.165 640.463>
LayerCount: 2
Fore
SplineSet
91.7002 543.521 m 0
 118.294 543.112 143.506 527.771 155.44 501.922 c 2
 259.928 277.915 l 2
 272.833 242.554 276.705 207.715 276.705 207.715 c 1
 276.705 207.715 280.81 242.694 295.109 278.444 c 2
 337.746 370.336 l 2
 346.521 388.536 363.5 403 389.5 403 c 2
 474 403 l 2
 495.45 403 515.43 386.994 525.18 367.819 c 2
 567.662 277.915 l 2
 580.567 242.554 584.48 207.715 584.48 207.715 c 1
 584.48 207.715 588.585 242.694 602.885 278.444 c 2
 706.072 501.922 l 2
 718.171 528.132 743.916 543.535 770.912 543.535 c 0
 780.959 543.535 791.178 541.403 800.931 536.9 c 0
 827.141 524.8 842.543 499.032 842.543 472.024 c 0
 842.543 461.975 840.411 451.753 835.909 442 c 2
 631.2 0 l 1
 537.396 0 l 1
 430.593 231.4 l 1
 323.425 0 l 1
 229.622 0 l 1
 25.6436 442 l 2
 21.1357 451.763 19 461.996 19 472.056 c 0
 19 499.053 34.3799 524.805 60.5811 536.9 c 0
 70.3398 541.406 80.5488 543.53 90.6025 543.53 c 0
 90.9688 543.53 91.334 543.527 91.7002 543.521 c 0
EndSplineSet
Validated: 1
EndChar

StartChar: z
Encoding: 122 122 26
Width: 585
VWidth: 0
Flags: W
HStem: -6.5 143<249.308 504.899> 403 143<105.424 331.705>
LayerCount: 2
Fore
SplineSet
187.72 546 m 2
 491.515 546 l 2
 524.015 546 543.515 520 543.515 494 c 2
 543.515 429 l 2
 543.521 428.711 543.526 428.424 543.526 428.138 c 0
 543.526 404.59 517.3 389.744 499.72 368.672 c 2
 249.308 136.5 l 1
 543.515 136.5 l 1
 543.515 97.5 543.515 -6.5 439.515 -6.5 c 2
 91.2715 -6.5 l 2
 75.0215 -6.5 36.5137 19.5 36.5137 45.5 c 2
 36.5137 110.5 l 2
 36.5049 110.84 36.5 111.179 36.5 111.517 c 0
 36.5 135.044 58.6758 152.271 80.3076 172.666 c 2
 331.705 403 l 1
 57.7197 403 l 1
 57.7197 465.535 70.0439 546 187.72 546 c 2
EndSplineSet
Validated: 1
EndChar

StartChar: x
Encoding: 120 120 27
Width: 609
VWidth: 0
Flags: W
LayerCount: 2
Fore
SplineSet
109.762 557.578 m 0
 110.362 557.594 110.962 557.602 111.562 557.602 c 0
 131.535 557.602 151.405 549.257 165.581 532.919 c 2
 294.037 384.84 l 1
 422.534 532.919 l 2
 436.712 549.259 456.568 557.627 476.545 557.627 c 0
 493.145 557.627 509.828 551.85 523.406 540.069 c 0
 539.747 525.891 548.114 506.034 548.114 486.057 c 0
 548.114 469.457 542.337 452.774 530.557 439.197 c 2
 388.734 275.723 l 1
 574.589 60.0107 l 1
 523.406 11.416 l 2
 509.817 -0.375 493.119 -6.16016 476.506 -6.16016 c 0
 456.542 -6.16016 436.703 2.19531 422.534 18.5254 c 2
 294.037 166.603 l 1
 165.581 18.5254 l 2
 151.411 2.19531 131.572 -6.16016 111.608 -6.16016 c 0
 94.9961 -6.16016 78.2979 -0.375 64.709 11.416 c 0
 48.3682 25.5938 40 45.4375 40 65.4043 c 0
 40 81.9941 45.7773 98.6689 57.5586 112.247 c 2
 199.381 275.723 l 1
 57.5586 439.197 l 2
 45.7773 452.774 40 469.457 40 486.057 c 0
 40 506.034 48.3682 525.891 64.709 540.069 c 0
 77.7979 551.426 93.7598 557.176 109.762 557.578 c 0
EndSplineSet
Validated: 1
EndChar

StartChar: exclam
Encoding: 33 33 28
Width: 352
VWidth: 0
Flags: W
HStem: -1.24316 145.543<125.322 228.222>
VStem: 104 145.544<20.0789 122.978 221 757.618>
LayerCount: 2
Fore
SplineSet
249.544 71.5283 m 0
 249.544 31.3584 216.941 -1.24316 176.772 -1.24316 c 0
 136.602 -1.24316 104 31.3584 104 71.5283 c 0
 104 111.698 136.602 144.3 176.772 144.3 c 0
 216.941 144.3 249.544 111.698 249.544 71.5283 c 0
176.8 780 m 0
 216.411 780 248.3 747.736 248.3 707.66 c 2
 248.3 221 l 1
 105.3 221 l 1
 105.3 707.66 l 2
 105.3 747.736 137.189 780 176.8 780 c 0
EndSplineSet
Validated: 1
EndChar

StartChar: question
Encoding: 63 63 29
Width: 594
VWidth: 0
Flags: W
HStem: 0 144.3<175.338 277.713> 327.6 139.101<297.7 385.663> 624 158.6<246.102 385.663>
VStem: 154.7 144.3<20.1501 123.012 221 327.6 327.6 327.6> 388.7 141.7<469.534 623.517>
LayerCount: 2
Fore
SplineSet
299 71.5 m 0
 299 29.9004 266.5 0 226.2 0 c 0
 185.9 0 154.7 29.9004 154.7 71.5 c 0
 154.7 111.8 185.9 144.3 226.2 144.3 c 0
 266.5 144.3 299 111.8 299 71.5 c 0
354.9 782.6 m 0
 469.3 782.6 530.4 692.9 530.4 596.7 c 2
 530.4 495.3 l 2
 530.4 401.7 469.3 327.6 354.9 327.6 c 2
 354.9 327.6 299 327.6 297.7 327.6 c 1
 297.7 221 l 1
 154.7 221 l 1
 154.7 327.6 l 2
 154.7 413.4 234 466.7 299 466.7 c 2
 373.1 466.7 l 2
 383.5 466.7 388.7 474.5 388.7 479.7 c 2
 388.7 612.3 l 2
 388.7 620.1 380.9 624 375.7 624 c 2
 53.2998 624 l 1
 53.2998 687.7 l 0
 52.6499 689 52.325 690.3 52.325 691.56 c 0
 52.325 695.338 55.2497 698.75 61.0996 700.7 c 2
 61.0996 700.7 276.9 782.6 354.9 782.6 c 0
EndSplineSet
Validated: 1
EndChar

StartChar: period
Encoding: 46 46 30
Width: 299
VWidth: 0
Flags: W
HStem: 0 144.3<100.262 201.662>
VStem: 79.2998 144.3<20.1501 123.012>
LayerCount: 2
Fore
SplineSet
223.6 71.5 m 4
 223.6 29.9004 189.8 0 149.5 0 c 4
 111.8 0 79.2998 29.9004 79.2998 71.5 c 4
 79.2998 111.8 111.8 144.3 149.5 144.3 c 4
 189.8 144.3 223.6 111.8 223.6 71.5 c 4
EndSplineSet
Validated: 1
EndChar

StartChar: colon
Encoding: 58 58 31
Width: 300
VWidth: 0
Flags: W
HStem: -1.24316 145.543<99.3221 202.222> 401.756 145.544<99.3221 202.222>
VStem: 78 145.544<20.0789 122.978 423.078 525.978>
LayerCount: 2
Fore
SplineSet
223.544 474.527 m 0
 223.544 434.358 190.941 401.756 150.772 401.756 c 0
 110.602 401.756 78 434.358 78 474.527 c 0
 78 514.698 110.602 547.3 150.772 547.3 c 0
 190.941 547.3 223.544 514.698 223.544 474.527 c 0
223.544 71.5283 m 0
 223.544 31.3584 190.941 -1.24316 150.772 -1.24316 c 0
 110.602 -1.24316 78 31.3584 78 71.5283 c 0
 78 111.698 110.602 144.3 150.772 144.3 c 0
 190.941 144.3 223.544 111.698 223.544 71.5283 c 0
EndSplineSet
Validated: 1
EndChar

StartChar: semicolon
Encoding: 59 59 32
Width: 314
VWidth: 0
Flags: W
HStem: 401.756 145.544<101.658 204.557>
VStem: 78 159.636<13.6819 116.405> 80.3359 145.544<423.078 525.978> 135.11 102.525<-61.0529 -9.70898>
LayerCount: 2
Fore
SplineSet
159.066 143.569 m 0x90
 202.43 143.569 237.636 108.362 237.636 65 c 2xc0
 237.636 10.4824 l 2x90
 237.636 -16.1709 229.526 -40.291 219.111 -56.6719 c 2
 151.592 -152.79 l 2
 140.27 -166.249 126.571 -171.743 114.078 -171.743 c 0
 94.5703 -171.743 78 -158.349 78 -140.967 c 0xc0
 78 -134.95 79.9854 -128.457 84.5205 -121.875 c 2
 128.314 -37.2529 l 1
 133.657 -30.1064 135.11 -23.751 135.11 -16.9492 c 0
 135.11 -14.6064 134.938 -12.209 134.691 -9.70898 c 1
 103.254 0.555664 80.5391 30.1426 80.5391 65 c 0
 80.5391 108.362 115.705 143.569 159.066 143.569 c 0x90
225.88 474.527 m 0xa0
 225.88 434.358 193.277 401.756 153.107 401.756 c 0
 112.938 401.756 80.3359 434.358 80.3359 474.527 c 0
 80.3359 514.698 112.938 547.3 153.107 547.3 c 0
 193.277 547.3 225.88 514.698 225.88 474.527 c 0xa0
EndSplineSet
Validated: 1
EndChar

StartChar: quotesingle
Encoding: 39 39 33
Width: 300
VWidth: 0
Flags: W
HStem: 442 341.9<109.033 198.169>
VStem: 78.041 145.519
LayerCount: 2
Fore
SplineSet
150.76 783.9 m 0
 190.93 783.9 223.56 751.312 223.56 711.141 c 2
 198.169 440.817 l 1
 150.76 442 l 2
 123.365 442 100.916 463.213 98.9219 490.1 c 1
 98.7998 490.1 l 1
 78.041 712.155 l 1
 78 712.4 l 1
 78.041 712.4 l 1
 78.7178 751.986 111.013 783.9 150.76 783.9 c 0
EndSplineSet
Validated: 1
EndChar

StartChar: quotedbl
Encoding: 34 34 34
Width: 531
VWidth: 0
Flags: W
LayerCount: 2
Fore
SplineSet
381.776 783.9 m 0
 421.946 783.9 454.576 751.312 454.576 711.141 c 2
 429.188 440.817 l 1
 381.776 442 l 2
 354.384 442 331.935 463.213 329.938 490.1 c 1
 329.816 490.1 l 1
 309.057 712.155 l 1
 309.017 712.4 l 1
 309.057 712.4 l 1
 309.734 751.986 342.03 783.9 381.776 783.9 c 0
150.76 783.9 m 0
 190.929 783.9 223.56 751.312 223.56 711.141 c 2
 198.169 440.817 l 1
 150.76 442 l 2
 123.365 442 100.916 463.213 98.9219 490.1 c 1
 98.7998 490.1 l 1
 78.041 712.155 l 1
 78 712.4 l 1
 78.041 712.4 l 1
 78.7178 751.986 111.012 783.9 150.76 783.9 c 0
EndSplineSet
Validated: 1
EndChar

StartChar: M
Encoding: 77 77 35
Width: 801
VWidth: 0
Flags: W
HStem: 0 21G<52.5 195.5 592 735>
VStem: 52.5 143<0 499.728> 592 143<0 499.728>
LayerCount: 2
Fore
SplineSet
124 780 m 0
 163.611 780 176 753.311 195.5 729.3 c 2
 393.75 457.397 l 1
 592 729.3 l 2
 611.5 753.311 623.889 780 663.5 780 c 0
 703.111 780 735 748.111 735 708.5 c 2
 735 0 l 1
 592 0 l 1
 592 499.728 l 1
 414.59 273.095 l 2
 409.593 266.598 401.552 263.057 393.411 263.057 c 0
 385.672 263.057 377.843 266.257 372.452 273.162 c 2
 195.5 499.728 l 1
 195.5 0 l 1
 52.5 0 l 1
 52.5 708.5 l 2
 52.5 748.111 84.3896 780 124 780 c 0
EndSplineSet
Validated: 1
EndChar

StartChar: N
Encoding: 78 78 36
Width: 743
VWidth: 0
Flags: W
HStem: 0 21G<52.5 195.5 585.844 625.456>
VStem: 52.5 143<0 499.728> 534.15 143<280.272 764.237>
LayerCount: 2
Fore
SplineSet
124 780 m 0
 163.611 780 176 753.311 195.5 729.3 c 2
 534.15 280.272 l 1
 534.15 724.1 l 2
 536.75 756.6 565.35 780 604.35 780 c 2
 677.15 780 l 1
 677.15 71.5 l 2
 677.15 31.8896 645.261 0 605.65 0 c 0
 566.039 0 553.65 26.6895 534.15 50.7002 c 2
 195.5 499.728 l 1
 195.5 0 l 1
 52.5 0 l 1
 52.5 708.5 l 2
 52.5 748.111 84.3896 780 124 780 c 0
EndSplineSet
Validated: 1
EndChar

StartChar: H
Encoding: 72 72 37
Width: 704
VWidth: 0
Flags: W
HStem: 0 21G<52.5 195.5 494.5 637.5> 309.928 143<195.5 494.5>
VStem: 52.5 143<0 309.928 452.928 759.104> 494.5 143<0 309.928 452.928 759.104>
LayerCount: 2
Fore
SplineSet
124 780 m 0
 163.611 780 195.5 748.111 195.5 708.5 c 2
 195.5 452.928 l 1
 494.5 452.928 l 1
 494.5 708.5 l 2
 494.5 748.111 526.389 780 566 780 c 2
 637.5 780 l 1
 637.5 0 l 1
 494.5 0 l 1
 494.5 309.928 l 1
 195.5 309.928 l 1
 195.5 0 l 1
 52.5 0 l 1
 52.5 708.5 l 2
 52.5 748.111 84.3896 780 124 780 c 0
EndSplineSet
Validated: 1
EndChar

StartChar: O
Encoding: 79 79 38
Width: 674
VWidth: 0
Flags: W
HStem: 0 143<191.968 463.535> 637 143<191.968 463.535>
VStem: 47.5 143.081<144.468 635.532> 464.922 143.081<144.468 635.532>
LayerCount: 2
Fore
SplineSet
218.003 780 m 2
 437.5 780 l 2
 531.967 780 608.003 703.964 608.003 609.497 c 2
 608.003 170.503 l 2
 608.003 76.0361 531.967 0 437.5 0 c 2
 218.003 0 l 2
 123.536 0 47.5 76.0361 47.5 170.503 c 2
 47.5 609.497 l 2
 47.5 703.964 123.536 780 218.003 780 c 2
203.5 637 m 2
 196.35 637 190.581 631.23 190.581 624.08 c 2
 190.581 155.919 l 2
 190.581 148.77 196.35 143 203.5 143 c 2
 452.003 143 l 2
 459.152 143 464.922 148.77 464.922 155.919 c 2
 464.922 624.08 l 2
 464.922 631.23 459.152 637 452.003 637 c 2
 203.5 637 l 2
EndSplineSet
Validated: 1
EndChar

StartChar: P
Encoding: 80 80 39
Width: 599
VWidth: 0
Flags: W
HStem: 0 21G<52 195> 309.4 143<195 389.648> 635.771 144.229<195 389.621>
VStem: 52 143<0 309.4 452.4 635.771> 390 143<452.4 465.4 465.4 633.78>
LayerCount: 2
Fore
SplineSet
195 0 m 1
 52 0 l 1
 52 780 l 1
 377 780 l 2
 468 780 533 715 533 629.801 c 2
 533 452.4 l 2
 533 358.131 448.5 309.4 383.5 309.4 c 2
 195 309.4 l 1
 195 0 l 1
390 465.4 m 2
 390 622.446 l 2
 390 628.955 383.184 635.771 377 635.771 c 2
 195 635.771 l 1
 195 452.4 l 1
 376.675 452.4 l 2
 383.833 452.4 390 458.242 390 465.4 c 2
EndSplineSet
Validated: 1
EndChar

StartChar: C
Encoding: 67 67 40
Width: 594
VWidth: 0
Flags: W
HStem: 0 143<191.968 492.627> 637 143<191.968 479.18>
VStem: 47.5 143.081<144.468 170.503 170.503 635.532>
LayerCount: 2
Fore
SplineSet
218.003 780 m 2
 424.5 780 l 2
 493.445 778.724 528.535 703.463 528.535 640.427 c 0
 528.535 639.28 528.523 638.138 528.5 637 c 1
 203.5 637 l 2
 196.35 637 190.581 631.23 190.581 624.08 c 2
 190.581 155.919 l 2
 190.581 148.77 196.35 143 203.5 143 c 2
 541.5 143 l 1
 541.5 78 502.5 0 437.5 0 c 2
 218.003 0 l 2
 123.536 0 47.5 76.0361 47.5 170.503 c 2
 47.5 609.497 l 2
 47.5 703.964 123.536 780 218.003 780 c 2
EndSplineSet
Validated: 1
EndChar

StartChar: Q
Encoding: 81 81 41
Width: 722
VWidth: 0
Flags: W
HStem: 0 143<191.468 398.285> 637 143<191.468 463.035>
VStem: 47 143.081<144.468 635.532> 464.422 143.081<198.25 635.532>
LayerCount: 2
Fore
SplineSet
217.503 780 m 2
 437 780 l 2
 531.467 780 607.503 703.964 607.503 609.497 c 2
 607.503 170.503 l 2
 607.503 146.854 602.723 124.354 594.098 103.919 c 1
 649.297 49.4521 708.253 -8.69336 708.253 -8.69336 c 1
 677.338 -44.6875 l 2
 667.074 -57.249 652.15 -63.748 637.099 -63.748 c 0
 626.732 -63.748 616.307 -60.665 607.3 -54.3564 c 1
 607.22 -54.4785 l 1
 505.21 14.0967 l 1
 484.342 5.02832 461.28 0 437 0 c 2
 217.503 0 l 2
 123.036 0 47 76.0361 47 170.503 c 2
 47 609.497 l 2
 47 703.964 123.036 780 217.503 780 c 2
203 637 m 2
 195.85 637 190.081 631.23 190.081 624.08 c 2
 190.081 155.919 l 2
 190.081 148.77 195.85 143 203 143 c 2
 398.285 143 l 1
 407.23 173.749 431.799 195.475 464.422 198.25 c 1
 464.422 624.08 l 2
 464.422 631.23 458.652 637 451.503 637 c 2
 203 637 l 2
EndSplineSet
Validated: 1
EndChar

StartChar: R
Encoding: 82 82 42
Width: 619
VWidth: 0
Flags: W
HStem: 0 21G<52.5 195.5> 309.4 143<195.5 315.345> 635.78 144.22<195.5 386.526>
VStem: 52.5 143<0 309.4 452.4 635.78> 390.5 143<452.4 465.4 465.4 633.788>
LayerCount: 2
Fore
SplineSet
52.5 780 m 1
 377.5 780 l 2
 475 780 533.5 715 533.5 629.81 c 2
 533.5 452.4 l 2
 533.5 394.219 501.316 353.386 461.391 330.647 c 1
 585.68 30.6836 l 1
 522.694 -2.72168 l 2
 513.651 -6.48535 504.296 -8.26855 495.105 -8.26855 c 0
 467.126 -8.26855 440.672 8.26172 429.215 35.791 c 2
 315.345 309.4 l 1
 195.5 309.4 l 1
 195.5 0 l 1
 52.5 0 l 1
 52.5 780 l 1
195.5 635.78 m 1
 195.5 452.4 l 1
 377.175 452.4 l 2
 384.333 452.4 390.5 458.242 390.5 465.4 c 2
 390.5 622.455 l 2
 390.5 628.963 383.684 635.78 377.5 635.78 c 2
 195.5 635.78 l 1
EndSplineSet
Validated: 1
EndChar

StartChar: T
Encoding: 84 84 43
Width: 618
VWidth: 0
Flags: W
HStem: 0 21G<188 331> 637 143<-12.1039 188 331 531.104>
VStem: 188 143<0 637>
LayerCount: 2
Fore
SplineSet
38.5 780 m 2
 480.5 780 l 2
 520.111 780 552 748.111 552 708.5 c 2
 552 637 l 1
 331 637 l 1
 331 0 l 1
 188 0 l 1
 188 637 l 1
 -33 637 l 1
 -33 708.5 l 2
 -33 748.111 -1.11035 780 38.5 780 c 2
EndSplineSet
Validated: 1
EndChar

StartChar: V
Encoding: 86 86 44
Width: 699
VWidth: 0
Flags: W
HStem: 0 21G<230.6 391.292>
LayerCount: 2
Fore
SplineSet
82.582 786.54 m 0
 83.0596 786.551 83.5352 786.555 84.0117 786.555 c 0
 113.97 786.555 141.746 767.615 151.726 737.547 c 2
 311.098 257.359 l 1
 470.47 737.547 l 2
 480.449 767.616 508.239 786.568 538.2 786.568 c 0
 545.7 786.568 553.335 785.382 560.86 782.885 c 2
 568.133 780.447 l 1
 633.306 754.271 l 1
 384.7 0 l 1
 237.223 0 l 1
 8.68555 690.098 l 2
 6.1875 697.623 5 705.257 5 712.752 c 0
 5 742.704 23.9541 770.467 54.0234 780.447 c 2
 61.3359 782.885 l 2
 68.3838 785.225 75.5439 786.399 82.582 786.54 c 0
EndSplineSet
Validated: 1
EndChar

StartChar: A
Encoding: 65 65 45
Width: 654
VWidth: 0
Flags: W
HStem: 168.31 143<256.61 396.197>
LayerCount: 2
Fore
SplineSet
320.919 780 m 2
 399.936 780 l 1
 628.45 89.9033 l 1
 629.646 82.5645 630.229 75.5996 630.229 69.0234 c 0
 630.229 23.0029 601.681 -3.96484 554.554 -6.54102 c 0
 553.378 -6.60449 552.205 -6.63672 551.037 -6.63672 c 0
 521.926 -6.63672 495.156 13.0869 485.41 42.4531 c 2
 443.647 168.31 l 1
 209.16 168.31 l 1
 167.397 42.4531 l 2
 157.546 12.7734 130.337 -6.58984 100.84 -6.58984 c 0
 99.9785 -6.58984 99.1172 -6.57422 98.2529 -6.54102 c 0
 55.2217 -4.88672 21.5 25.8828 21.5 68.1504 c 0
 21.5 75.1152 22.416 82.3926 24.3564 89.9033 c 2
 226.913 701.431 l 2
 243.458 743.717 271.28 780 320.919 780 c 2
326.403 521.544 m 1
 256.61 311.31 l 1
 396.197 311.31 l 1
 326.403 521.544 l 1
EndSplineSet
Validated: 1
EndChar

StartChar: G
Encoding: 71 71 46
Width: 594
VWidth: 0
Flags: W
HStem: 0 143<191.468 398> 310.05 93.355<319.604 398> 637 143<191.468 478.68>
VStem: 47 143.081<144.468 170.503 170.503 635.532> 398 143<143 310.05>
LayerCount: 2
Fore
SplineSet
217.503 780 m 2
 424 780 l 2
 492.945 778.724 528.035 703.463 528.035 640.427 c 0
 528.035 639.28 528.023 638.138 528 637 c 1
 203 637 l 2
 195.85 637 190.081 631.23 190.081 624.08 c 2
 190.081 155.919 l 2
 190.081 148.77 195.85 143 203 143 c 2
 398 143 l 1
 398 310.05 l 1
 359 310.05 l 2
 329.585 310.05 313.5 330.168 313.5 357.744 c 2
 313.5 403.405 l 1
 541 403.405 l 1
 541 331.905 l 1
 541 143 l 1
 541 71.5 l 2
 541 32.6689 515.225 0.283203 463.837 0.283203 c 0
 463.612 0.283203 463.388 0.283203 463.162 0.28418 c 1
 463.162 0.283203 463 0 463 0 c 1
 217.503 0 l 2
 123.036 0 47 76.0361 47 170.503 c 2
 47 609.497 l 2
 47 703.964 123.036 780 217.503 780 c 2
EndSplineSet
Validated: 1
EndChar

StartChar: U
Encoding: 85 85 47
Width: 640
VWidth: 0
Flags: W
HStem: 0 143.122<194.5 431.141>
VStem: 51.5 143<143.127 766.709> 431.141 143<143.127 760.723>
LayerCount: 2
Fore
SplineSet
123.487 785.688 m 0
 159.075 785.525 194.5 761.8 194.5 715 c 2
 194.5 156.122 l 2
 194.5 149.622 201.04 143.122 207.54 143.122 c 2
 418.1 143.122 l 2
 424.6 143.122 431.141 149.622 431.141 156.122 c 2
 431.141 708.5 l 2
 431.141 755.471 466.825 780.003 502.544 780.003 c 0
 503.249 780 l 2
 574.141 780 l 1
 574.141 130 l 2
 574.141 52 522.141 0 457.141 0 c 2
 168.5 0 l 2
 103.5 0 51.5 52 51.5 130 c 2
 51.5 715 l 2
 52.1475 762.286 87.6543 785.688 123.119 785.688 c 0
 123.487 785.688 l 0
EndSplineSet
Validated: 1
EndChar

StartChar: S
Encoding: 83 83 48
Width: 600
VWidth: 0
Flags: W
HStem: -1.27246 132.599<89.0813 410.598> 329.428 143.294<190.4 413.995> 647.4 132.6<190.404 479.938>
VStem: 47.4004 143<472.727 647.4> 414 143<133.311 144.284 144.284 326.497>
LayerCount: 2
Fore
SplineSet
47.4004 663 m 6
 47.4004 725.594 99.665 780 190.4 780 c 6
 415.3 780 l 6
 478.354 778.894 519.3 738.106 519.3 647.4 c 5
 203.4 647.4 l 6
 196.031 647.4 190.4 641.196 190.4 634.303 c 6
 190.4 485.25 l 6
 190.4 479.461 196.558 472.722 202.793 472.722 c 4
 202.996 472.722 203.198 472.729 203.4 472.742 c 6
 414 472.742 l 6
 506.045 472.742 557 401.055 557 322.836 c 6
 557 141.728 l 6
 557 50.7275 505 -1.27246 401 -1.27246 c 6
 147.5 -1.27246 l 6
 80.085 -1.27246 56.5 53.291 56.5 131.327 c 5
 401 131.327 l 6
 407.896 131.327 414 137.391 414 144.284 c 6
 414 318.015 l 6
 414 324.219 407.435 329.428 401 329.428 c 6
 190.4 329.428 l 6
 110.556 329.428 47.4004 385.558 47.4004 462.214 c 6
 47.4004 663 l 6
EndSplineSet
Validated: 1
EndChar

StartChar: I
Encoding: 73 73 49
Width: 261
VWidth: 0
Flags: W
HStem: 0 21G<52 195>
VStem: 52 143<0 759.104>
LayerCount: 2
Fore
SplineSet
123.5 780 m 2
 195 780 l 1
 195 0 l 1
 52 0 l 1
 52 708.5 l 2
 52 748.111 83.8896 780 123.5 780 c 2
EndSplineSet
Validated: 1
EndChar

StartChar: J
Encoding: 74 74 50
Width: 286
VWidth: 0
Flags: W
VStem: 76.832 142.68<-98.9873 -39 -39 764.304>
LayerCount: 2
Fore
SplineSet
148.012 785.2 m 0
 187.623 785.2 219.512 753.311 219.512 713.7 c 2
 219.512 -39 l 2
 219.512 -67.666 212.943 -91.5928 190.843 -113.043 c 2
 69.126 -224.682 l 2
 53.4209 -243.351 34.415 -250.972 17.0781 -250.972 c 0
 -9.99707 -250.972 -33 -232.383 -33 -208.264 c 0
 -33 -199.919 -30.2471 -190.913 -23.957 -181.785 c 1
 58.499 -96.3164 l 1
 72.9131 -74.6963 76.832 -66.2939 76.832 -44.6318 c 0
 76.832 -42.8496 76.8057 -40.9766 76.7559 -39 c 1
 76.5127 -39 l 1
 76.5127 713.7 l 2
 76.5127 753.311 108.402 785.2 148.012 785.2 c 0
EndSplineSet
Validated: 1
EndChar

StartChar: L
Encoding: 76 76 51
Width: 596
VWidth: 0
Flags: W
HStem: 0 143<195.5 551.604>
VStem: 52.5 143<143 759.104>
LayerCount: 2
Fore
SplineSet
124 780 m 2
 195.5 780 l 1
 195.5 143 l 1
 501 143 l 2
 540.611 143 572.5 111.11 572.5 71.5 c 0
 572.5 31.8896 540.611 0 501 0 c 2
 52.5 0 l 1
 52.5 708.5 l 2
 52.5 748.111 84.3896 780 124 780 c 2
EndSplineSet
Validated: 1
EndChar

StartChar: B
Encoding: 66 66 52
Width: 603
VWidth: 0
Flags: W
HStem: 0 143<195.5 416.473> 339.625 117.975<195.5 390.496> 651.381 127.563<195.5 387.098>
VStem: 52.5 143<143 339.625 457.6 651.381> 390.5 143<457.6 470.6 470.6 649.367> 416.825 143<143 156 156 339.554>
LayerCount: 2
Fore
SplineSet
52.5 778.944 m 1xf4
 377.5 778.944 l 2
 481.505 778.944 533.5 715 533.5 629.81 c 2
 533.5 452.4 l 2xf8
 533.5 428.09 507.5 390 468.5 390 c 1
 507.5 390 559.825 348.845 559.825 302.453 c 2
 559.825 143 l 2
 559.825 48.7314 475.325 0 410.325 0 c 2
 52.5 0 l 1
 52.5 778.944 l 1xf4
195.5 651.381 m 1
 195.5 457.6 l 1
 377.175 457.6 l 2
 384.333 457.6 390.5 463.442 390.5 470.6 c 2
 390.5 638.056 l 2
 390.5 644.562 383.684 651.381 377.5 651.381 c 2
 195.5 651.381 l 1
195.5 339.625 m 1
 195.5 143 l 1
 403.5 143 l 2
 410.658 143 416.825 148.842 416.825 156 c 2
 416.825 326.3 l 2xf4
 416.825 332.808 410.009 339.625 403.825 339.625 c 2
 195.5 339.625 l 1
EndSplineSet
Validated: 1
EndChar

StartChar: D
Encoding: 68 68 53
Width: 626
VWidth: 0
Flags: W
HStem: 0 143<195.5 416.148> 635.771 144.229<195.5 412.643>
VStem: 52.5 143<143 635.771> 416.5 143<143 156 156 633.497>
LayerCount: 2
Fore
SplineSet
410 0 m 2
 52.5 0 l 1
 52.5 780 l 1
 400.344 780 l 2
 488.666 780 559.5 708.771 559.5 629.801 c 2
 559.5 143 l 2
 559.5 48.7314 475 0 410 0 c 2
416.5 156 m 2
 416.5 622.446 l 2
 416.5 628.955 409.684 635.771 403.5 635.771 c 2
 195.5 635.771 l 1
 195.5 143 l 1
 403.175 143 l 2
 410.333 143 416.5 148.842 416.5 156 c 2
EndSplineSet
Validated: 1
EndChar

StartChar: W
Encoding: 87 87 54
Width: 920
VWidth: 0
Flags: W
HStem: 0 21G<173.688 368.903 486.641 684.02>
LayerCount: 2
Fore
SplineSet
84.2314 785.46 m 0
 84.8906 785.479 85.5479 785.487 86.2051 785.487 c 0
 118.719 785.487 147.996 763.26 155.69 730.17 c 2
 275.384 214.053 l 1
 344.578 512.914 l 2
 350.428 530.464 361.339 545.35 379.539 546 c 2
 478.191 546 l 2
 478.543 546.017 478.896 546.024 479.251 546.024 c 0
 492.671 546.024 508.209 534.119 512.642 515.121 c 2
 582.347 214.053 l 1
 703.123 730.219 l 2
 710.817 763.307 740.073 785.531 772.583 785.531 c 0
 777.98 785.531 783.47 784.919 788.963 783.642 c 2
 856.33 765.833 l 1
 679.399 0 l 1
 491.792 0 l 1
 454.959 143 l 2
 444.039 196.793 436.713 241.862 428.864 354.535 c 1
 419.765 240.135 415.114 196.551 403.133 143 c 2
 363.337 0 l 1
 178.33 0 l 1
 16.3877 697.792 l 2
 15.1113 703.279 14.5 708.76 14.5 714.151 c 0
 14.5 746.661 36.7559 775.896 69.8506 783.592 c 0
 74.6729 784.713 79.4746 785.329 84.2314 785.46 c 0
EndSplineSet
Validated: 1
EndChar

StartChar: Y
Encoding: 89 89 55
Width: 710
VWidth: 0
Flags: W
HStem: 0 21G<226.992 369.992>
VStem: 226.992 143<0 337.838>
LayerCount: 2
Fore
SplineSet
47.5928 792.105 m 0
 48.6025 792.113 l 0
 71.1865 792.113 93.3447 781.381 107.271 761.354 c 2
 298.777 485.915 l 1
 490.323 761.354 l 2
 504.246 781.377 526.412 792.093 548.983 792.093 c 0
 563.071 792.093 577.316 787.918 589.814 779.229 c 2
 643.516 739.512 l 1
 369.992 337.838 l 1
 369.992 0 l 1
 226.992 0 l 1
 226.992 338.69 l 1
 -10.1357 679.697 l 2
 -18.8262 692.194 -23 706.446 -23 720.541 c 0
 -23 743.124 -12.2852 765.305 7.73926 779.229 c 0
 19.9346 787.709 33.833 791.91 47.5928 792.105 c 0
EndSplineSet
Validated: 1
EndChar

StartChar: X
Encoding: 88 88 58
Width: 710
VWidth: 0
Flags: W
LayerCount: 2
Fore
SplineSet
97.042 787.76 m 0
 97.5684 787.761 l 0
 120.319 787.761 142.63 776.906 156.516 756.641 c 2
 334.86 496.397 l 1
 513.163 756.641 l 2
 527.05 776.906 549.36 787.761 572.111 787.761 c 0
 572.639 787.76 l 0
 586.396 787.658 600.279 783.604 612.532 775.205 c 0
 632.799 761.319 643.681 738.986 643.681 716.229 c 0
 643.681 702.298 639.602 688.206 631.098 675.797 c 2
 421.514 369.931 l 1
 647.889 38.3613 l 1
 590.699 -2.50684 l 2
 578.406 -10.9307 564.045 -15.0234 549.748 -15.0234 c 0
 526.777 -15.0234 503.971 -4.45898 490.17 15.6816 c 2
 334.82 242.369 l 1
 179.511 15.6816 l 2
 165.492 -4.77441 143.087 -15.8027 120.426 -15.8027 c 0
 106.89 -15.8027 93.2627 -11.8672 81.2793 -3.65625 c 2
 79.0039 -2.1123 l 2
 59.3174 11.377 48.792 33.1709 48.792 55.5508 c 0
 48.792 69.6016 52.9404 83.8828 61.5762 96.4844 c 2
 248.166 369.931 l 1
 38.582 675.797 l 2
 30.0791 688.206 25.999 702.298 25.999 716.229 c 0
 25.999 738.986 36.8818 761.319 57.1484 775.205 c 0
 69.4014 783.604 83.2822 787.658 97.042 787.76 c 0
EndSplineSet
Validated: 1
EndChar

StartChar: E
Encoding: 69 69 59
Width: 616
VWidth: 0
Flags: W
HStem: 0 143<195.5 550.309> 309.4 143<195.5 498.271> 637 143<195.5 528.204>
VStem: 52.5 143<143 309.4 452.4 637>
LayerCount: 2
Fore
SplineSet
52.5 780 m 1
 549.1 780 l 1
 549.1 708.5 l 2
 549.1 668.889 517.211 637 477.6 637 c 2
 195.5 637 l 1
 195.5 452.4 l 1
 449 452.4 l 2
 488.433 448.645 520.5 420.511 520.5 380.9 c 0
 520.5 341.289 488.333 314.083 449 309.4 c 2
 195.5 309.4 l 1
 195.5 143 l 1
 501 143 l 2
 540.433 139.244 572.5 111.11 572.5 71.5 c 0
 572.5 31.8896 540.559 2.04688 501 0 c 2
 52.5 0 l 1
 52.5 780 l 1
EndSplineSet
Validated: 1
EndChar

StartChar: F
Encoding: 70 70 60
Width: 615
VWidth: 0
Flags: W
HStem: 0 21G<52.5 195.5> 309.4 143<195.5 440.773> 637 143<195.5 528.204>
VStem: 52.5 143<0 309.4 452.4 637>
LayerCount: 2
Fore
SplineSet
52.5 780 m 1
 549.1 780 l 1
 549.1 708.5 l 2
 549.1 668.889 517.211 637 477.6 637 c 2
 195.5 637 l 1
 195.5 452.4 l 1
 390.169 452.4 l 2
 429.779 452.4 461.669 420.511 461.669 380.9 c 0
 461.669 341.289 429.779 309.4 390.169 309.4 c 2
 195.5 309.4 l 1
 195.5 0 l 1
 52.5 0 l 1
 52.5 780 l 1
EndSplineSet
Validated: 1
EndChar

StartChar: Z
Encoding: 90 90 61
Width: 631
VWidth: 0
Flags: W
HStem: 0 143<207.522 538.106> 637 143<86.74 376.522>
LayerCount: 2
Fore
SplineSet
169.096 780 m 2
 512.037 780 l 2
 544.537 780 564.037 754 564.037 728 c 2
 564.037 676 l 2
 564.037 654.697 555.501 639.354 545.521 624 c 2
 207.522 143 l 1
 576.722 143 l 1
 576.722 104 576.722 0 472.722 0 c 2
 93.2793 0 l 2
 77.0293 0 38.5215 26 38.5215 52 c 2
 38.5215 117 l 2
 38.5068 117.53 38.5 118.062 38.5 118.596 c 0
 38.5 142.303 52.4824 170.066 69.4463 194.795 c 2
 376.522 637 l 1
 38.8369 637 l 1
 38.8369 699.535 51.4189 780 169.096 780 c 2
EndSplineSet
Validated: 1
EndChar

StartChar: K
Encoding: 75 75 62
Width: 654
VWidth: 0
Flags: W
HStem: 0 21G<52.5 195.5>
VStem: 52.5 143<0 264.185 510.615 780>
LayerCount: 2
Fore
SplineSet
438.152 760.297 m 2
 453.396 774.49 470.746 781.398 487.991 781.398 c 0
 506.047 781.398 523.985 773.826 539.27 759.119 c 2
 588.702 707.829 l 1
 274.027 387.4 l 1
 592.69 111.597 l 2
 607.072 97.5439 614.29 79.0029 614.29 60.4453 c 0
 614.29 42.4453 607.5 24.4307 593.869 10.4814 c 0
 580.082 -3.62793 561.78 -10.3125 543.479 -10.3125 c 0
 525.03 -10.3125 506.581 -3.52148 492.753 9.30273 c 2
 195.5 264.185 l 1
 195.5 0 l 1
 52.5 0 l 1
 52.5 780 l 1
 195.5 780 l 1
 195.5 510.615 l 1
 438.152 760.297 l 2
EndSplineSet
Validated: 1
EndChar

StartChar: one
Encoding: 49 49 63
Width: 225
VWidth: 0
Flags: W
HStem: 0 21G<40 183>
VStem: 40 143<0 488.579>
LayerCount: 2
Fore
SplineSet
183 559 m 1
 183 0 l 1
 40 0 l 1
 40 403 l 2
 40 507 111.5 559 183 559 c 1
EndSplineSet
Validated: 1
EndChar

StartChar: two
Encoding: 50 50 64
Width: 567
VWidth: 0
Flags: W
HStem: -6.5 143<248.808 491.399> 412.141 132.599<96.1766 370.941>
VStem: 371.077 143.255<314.772 336.604 336.604 402.105>
LayerCount: 2
Fore
SplineSet
160.814 544.74 m 2
 371.414 544.74 l 2
 460.012 544.74 510.429 492.83 514.21 432.128 c 1
 514.332 432.169 l 1
 514.332 431.355 l 1
 514.332 328.677 l 2
 514.332 289.677 487.049 257.242 462.82 242.349 c 2
 248.808 136.5 l 1
 530.015 136.5 l 1
 530.015 97.5 530.015 -6.5 426.015 -6.5 c 2
 90.7764 -6.5 l 2
 56.7393 -6.5 36.0137 14.4414 36.0137 45.5 c 2
 36.0137 110.5 l 2
 36.0049 110.854 36 111.207 36 111.561 c 0
 36 135.17 57.2822 155.895 79.8076 172.655 c 1
 354.469 317.028 l 2
 363.19 321.389 371.077 328.078 371.077 336.604 c 0
 371.077 337.064 371.055 337.529 371.008 338 c 2
 371.008 402.105 l 1
 369.631 407.663 364.659 412.141 358.414 412.141 c 2
 56.8135 412.141 l 1
 56.8135 502.848 97.7617 543.635 160.814 544.74 c 2
EndSplineSet
Validated: 1
EndChar

StartChar: three
Encoding: 51 51 65
Width: 501
VWidth: 0
Flags: W
HStem: -241.19 143<46.4581 302.335> 116.391 111.799<95.3479 289.21> 412.141 132.599<69.7717 289.148>
VStem: 289.215 142.974<228.19 242.338 242.338 402.105> 306.009 143<-96.698 115.1>
LayerCount: 2
Fore
SplineSet
134.409 544.74 m 2xf0
 289.271 544.74 l 2
 377.869 544.74 428.286 492.83 432.07 432.128 c 1
 432.189 432.169 l 1
 432.189 431.355 l 1
 432.189 210.154 l 2xf0
 432.189 184.778 416.509 171.6 399.245 162.54 c 1
 429.509 152.1 449.009 109.868 449.009 80.5996 c 2
 449.009 -85.1904 l 1
 449.009 -87.791 l 2
 449.009 -184.026 386.646 -241.19 298.209 -241.19 c 2
 98.0088 -241.19 l 2
 9.52148 -241.19 7 -114.023 7 -99.5303 c 0
 7 -98.6553 7.00879 -98.1904 7.00879 -98.1904 c 1
 293.009 -98.1904 l 2
 299.347 -98.0283 305.847 -91.6904 306.009 -85.1904 c 2
 306.009 103.391 l 2xe8
 305.847 109.891 299.347 116.229 293.009 116.391 c 2
 135.604 116.391 l 2
 105.27 116.391 81.4111 147.532 81.4111 174.2 c 0
 81.4111 200.868 110.015 228.19 137.314 228.19 c 2
 275.424 228.19 l 2
 282.689 228.19 289.215 234.176 289.215 242.338 c 2
 289.215 402.105 l 1
 287.835 407.663 282.865 412.141 276.62 412.141 c 2
 30.4092 412.141 l 1
 30.4092 502.848 71.3564 543.635 134.409 544.74 c 2xf0
EndSplineSet
Validated: 1
EndChar

StartChar: four
Encoding: 52 52 66
Width: 565
VWidth: 0
Flags: W
HStem: 0 115.633<168.076 303.665 446.665 524.736>
VStem: 303.665 143<-240.648 0 115.633 304.123>
LayerCount: 2
Fore
SplineSet
375.165 546 m 0
 414.775 546 446.665 514.111 446.665 474.5 c 2
 446.665 114.034 l 1
 481.58 114.034 l 2
 513.164 114.034 538.617 88.6221 538.617 57.0371 c 2
 538.617 0 l 1
 446.665 0 l 1
 446.665 -240.648 l 1
 303.665 -240.648 l 1
 303.665 0 l 1
 75.6318 0 l 2
 37.377 0 10 34.2891 10 70.6592 c 0
 10 84.0322 13.7012 97.6875 21.9248 110.022 c 2
 308.215 507.447 l 2
 312.033 512.803 316.419 517.503 321.215 521.503 c 0
 334.305 536.531 353.581 546 375.165 546 c 0
303.665 304.123 m 1
 168.076 115.633 l 1
 303.665 115.633 l 1
 303.665 304.123 l 1
EndSplineSet
Validated: 1
EndChar

StartChar: five
Encoding: 53 53 67
Width: 576
VWidth: 0
Flags: WO
HStem: -246.302 132.6<68.5813 373.198> 110.5 114.715<181.6 376.595> 413.4 132.6<181.6 454.237>
VStem: 38.5996 143<225.215 413.4> 376.6 143<-111.719 -100.746 -100.746 107.738>
LayerCount: 2
Fore
SplineSet
38.5996 429 m 0
 40.1641 491.575 90.8652 546 181.6 546 c 2
 389.6 546 l 2
 452.652 544.894 493.6 504.106 493.6 413.4 c 1
 181.6 413.4 l 1
 181.6 358.038 181.6 280.576 181.6 225.215 c 1
 376.6 225.215 l 2
 468.646 225.215 519.6 153.527 519.6 75.3076 c 2
 519.6 -103.302 l 2
 519.6 -194.302 467.6 -246.302 363.6 -246.302 c 2
 127 -246.302 l 2
 59.585 -246.302 36 -191.739 36 -113.702 c 1
 363.6 -113.702 l 2
 370.495 -113.702 376.6 -107.641 376.6 -100.746 c 2
 376.6 99.0869 l 2
 376.6 105.291 370.035 110.5 363.6 110.5 c 2
 38.5996 110.5 l 1
 38.5996 218.833 38.5996 320.667 38.5996 429 c 0
EndSplineSet
Validated: 1
EndChar

StartChar: six
Encoding: 54 54 68
Width: 599
VWidth: 0
Flags: W
HStem: -7.7998 150.8<192.468 410.532> 393.046 140.4<191.081 410.532> 655.386 131.968<194.674 478.881>
VStem: 48 143.081<145.221 393.046 531.252 651.536> 411.919 143.081<145.221 392.039>
LayerCount: 2
Fore
SplineSet
198.8 787.354 m 2
 425 787.354 l 2
 513.488 787.354 516.009 669.996 516.009 656.622 c 0
 516.009 655.812 516 655.386 516 655.386 c 1
 204 655.386 l 2
 197.662 655.224 191.162 648.886 191 642.386 c 2
 191 531.252 l 1
 199.949 532.691 209.135 533.446 218.503 533.446 c 2
 384.497 533.446 l 2
 478.964 533.446 555 477.765 555 383.297 c 2
 555 162.703 l 2
 555 68.2363 478.964 -7.7998 384.497 -7.7998 c 2
 218.503 -7.7998 l 2
 124.036 -7.7998 48 68.2363 48 162.703 c 2
 48 633.954 l 2
 48 730.189 110.362 787.354 198.8 787.354 c 2
204 393.046 m 2
 196.85 393.046 191.081 387.276 191.081 380.127 c 2
 191.081 155.919 l 2
 191.081 148.77 196.85 143 204 143 c 2
 399 143 l 2
 406.15 143 411.919 148.77 411.919 155.919 c 2
 411.919 380.127 l 2
 411.919 387.276 406.15 393.046 399 393.046 c 2
 204 393.046 l 2
EndSplineSet
Validated: 1
EndChar

StartChar: nine
Encoding: 57 57 69
Width: 595
VWidth: 0
Flags: W
HStem: -246.595 143.001<114.449 396.326> 10.8066 140.399<180.468 399.915> 400.806 143<180.468 398.532>
VStem: 36 143.081<155.236 399.338> 399.919 143.081<-102.101 13 151.206 164.125 164.125 399.338>
LayerCount: 2
Fore
SplineSet
392.2 -246.595 m 2
 166 -246.595 l 2
 77.5127 -246.595 74.9912 -119.426 74.9912 -104.934 c 0
 74.9912 -104.059 75 -103.594 75 -103.594 c 1
 387 -103.594 l 2
 393.338 -103.432 399.838 -97.0938 400 -90.5938 c 2
 400 13 l 1
 391.051 11.5605 381.865 10.8066 372.497 10.8066 c 2
 206.503 10.8066 l 2
 112.036 10.8066 36 73.8428 36 168.31 c 2
 36 373.303 l 2
 36 467.77 112.036 543.806 206.503 543.806 c 2
 372.497 543.806 l 2
 466.964 543.806 543 467.77 543 373.303 c 2
 543 -93.1934 l 2
 543 -189.43 480.638 -246.595 392.2 -246.595 c 2
192 151.206 m 2
 387 151.206 l 2
 394.15 151.206 399.919 156.975 399.919 164.125 c 2
 399.919 387.888 l 2
 399.919 395.037 394.15 400.806 387 400.806 c 2
 192 400.806 l 2
 184.85 400.806 179.081 395.037 179.081 387.888 c 2
 179.081 164.125 l 2
 179.081 156.975 184.85 151.206 192 151.206 c 2
EndSplineSet
Validated: 1
EndChar

StartChar: zero
Encoding: 48 48 70
Width: 534
VWidth: 0
Flags: W
HStem: 0 143<182.081 349.613> 403 143<183.468 350.996>
VStem: 39 143.081<143.004 401.532> 351 143.08<144.468 403>
LayerCount: 2
Fore
SplineSet
209.503 546 m 2
 416 546 l 2
 442 546 494.08 507 494.08 455 c 2
 494.08 170.503 l 2
 494.08 76.0361 418.045 0 323.578 0 c 2
 143 0 l 2
 104 0 39 52 39 104 c 2
 39 375.497 l 2
 39 469.964 115.036 546 209.503 546 c 2
195 403 m 2
 187.85 403 182.081 397.23 182.081 390.081 c 2
 182.081 155.919 l 2
 182.081 148.77 187.85 143 195 143 c 2
 338.081 143 l 2
 345.23 143 351 148.77 351 155.919 c 2
 351 390.081 l 2
 351 397.23 345.23 403 338.081 403 c 2
 195 403 l 2
EndSplineSet
Validated: 1
EndChar

StartChar: seven
Encoding: 55 55 71
Width: 573
VWidth: 0
Flags: W
HStem: 403 143<51.9738 370.723>
LayerCount: 2
Fore
SplineSet
104.1 546 m 2
 468.1 546 l 2
 507.711 546 539.6 514.111 539.6 474.5 c 2
 539.6 442.325 l 2
 539.6 424.775 537 412.345 531.15 399.345 c 2
 329.481 -205.61 l 2
 320.381 -228.36 294.561 -241.8 273.1 -241.8 c 2
 146.228 -241.8 l 1
 370.723 403 l 1
 17 403 l 1
 17 461.637 32.0537 546 104.1 546 c 2
EndSplineSet
Validated: 1
EndChar

StartChar: eight
Encoding: 56 56 72
Width: 579
VWidth: 0
Flags: W
HStem: -7.7998 150.8<188.867 388.448> 358.8 96.2<208.28 369.031> 641.104 140.399<209.667 367.647>
VStem: 44.4004 143.08<145.221 357.276> 65.2002 143.08<456.11 637.074> 369.035 143.08<456.11 637.074> 389.835 143.08<145.221 357.276>
LayerCount: 2
Fore
SplineSet
235.703 781.503 m 2xe8
 341.612 781.503 l 2
 436.079 781.503 512.115 718.467 512.115 624 c 2
 512.115 513.703 l 2xec
 512.115 474.457 498.97 438.416 476.854 409.662 c 1
 510.981 389.651 532.915 349.739 532.915 310.497 c 2
 532.915 162.703 l 2
 532.915 68.2363 456.88 -7.7998 362.412 -7.7998 c 2
 214.902 -7.7998 l 2
 120.436 -7.7998 44.4004 68.2363 44.4004 162.703 c 2
 44.4004 310.497 l 2xf2
 44.4004 349.739 66.334 389.651 100.463 409.662 c 1
 78.3457 438.416 65.2002 474.457 65.2002 513.703 c 2
 65.2002 624 l 2
 65.2002 718.467 141.235 781.503 235.703 781.503 c 2xe8
356.115 641.104 m 2
 221.2 641.104 l 2
 214.05 641.104 208.28 635.335 208.28 628.185 c 2
 208.28 467.919 l 2
 208.28 460.77 214.05 455 221.2 455 c 2
 356.115 455 l 2
 363.266 455 369.035 460.77 369.035 467.919 c 2
 369.035 628.185 l 2
 369.035 635.335 363.266 641.104 356.115 641.104 c 2
376.915 358.8 m 2
 200.4 358.8 l 2
 193.25 358.8 187.48 353.03 187.48 345.881 c 2
 187.48 155.919 l 2
 187.48 148.77 193.25 143 200.4 143 c 2
 376.915 143 l 2
 384.065 143 389.835 148.77 389.835 155.919 c 2
 389.835 345.881 l 2xe2
 389.835 353.03 384.065 358.8 376.915 358.8 c 2
EndSplineSet
Validated: 1
EndChar

StartChar: acute
Encoding: 180 180 73
Width: 435
VWidth: 0
Flags: W
HStem: 583.15 208.512
VStem: 62.4004 309.211
LayerCount: 2
Fore
SplineSet
363.944 763.984 m 0
 369.1 755.053 371.611 745.063 371.611 735.237 c 0
 371.611 716.271 362.26 697.913 344.515 688.94 c 2
 119.713 586.347 l 2
 115.231 584.185 110.459 583.15 105.741 583.15 c 0
 94.585 583.15 83.7314 588.937 77.7549 599.287 c 2
 62.4004 624.413 l 1
 288.379 784.254 l 2
 297.076 789.275 306.576 791.662 315.952 791.662 c 0
 335.081 791.662 353.699 781.729 363.944 763.984 c 0
EndSplineSet
Validated: 1
EndChar

StartChar: grave
Encoding: 96 96 74
Width: 435
VWidth: 0
Flags: W
HStem: 583.15 208.512
VStem: 62.4004 309.211
LayerCount: 2
Fore
SplineSet
70.0684 763.984 m 0
 80.3125 781.729 98.9287 791.662 118.06 791.662 c 0
 127.436 791.662 136.936 789.275 145.633 784.254 c 2
 371.611 624.413 l 1
 356.257 599.287 l 2
 350.28 588.937 339.428 583.15 328.271 583.15 c 0
 323.553 583.15 318.781 584.185 314.3 586.347 c 2
 89.4971 688.94 l 2
 71.7529 697.911 62.4004 716.271 62.4004 735.235 c 0
 62.4004 745.062 64.9121 755.053 70.0684 763.984 c 0
EndSplineSet
Validated: 1
EndChar

StartChar: dieresis
Encoding: 168 168 75
Width: 466
VWidth: 0
Flags: W
HStem: 634.048 145.545<70.7224 173.621 294.322 397.221>
VStem: 49.4004 145.542<655.37 758.27> 273 145.543<655.37 758.27>
LayerCount: 2
Fore
SplineSet
194.942 706.82 m 0
 194.942 666.65 162.342 634.048 122.172 634.048 c 0
 82.002 634.048 49.4004 666.65 49.4004 706.82 c 0
 49.4004 746.99 82.002 779.593 122.172 779.593 c 0
 162.342 779.593 194.942 746.99 194.942 706.82 c 0
418.543 706.82 m 0
 418.543 666.65 385.941 634.048 345.771 634.048 c 0
 305.602 634.048 273 666.65 273 706.82 c 0
 273 746.99 305.602 779.593 345.771 779.593 c 0
 385.941 779.593 418.543 746.99 418.543 706.82 c 0
EndSplineSet
Validated: 1
EndChar

StartChar: dotlessi
Encoding: 305 305 76
Width: 312
VWidth: 0
Flags: W
HStem: 0 21G<85.6113 228.61>
VStem: 85.6113 142.999<0 525.104>
LayerCount: 2
Fore
SplineSet
157.11 546 m 0
 196.722 546 228.61 514.111 228.61 474.5 c 2
 228.61 0 l 1
 85.6113 0 l 1
 85.6113 474.5 l 2
 85.6113 514.111 117.5 546 157.11 546 c 0
EndSplineSet
Validated: 1
EndChar

StartChar: caron
Encoding: 711 711 77
Width: 479
VWidth: 0
Flags: W
HStem: 593.655 208.322
LayerCount: 2
Fore
SplineSet
53.0566 785.931 m 6
 60.1709 795.708 70.4424 801.978 81.5547 801.978 c 4
 85.96 801.978 90.4971 800.992 95.0215 798.85 c 5
 95.0625 798.931 l 5
 240.378 708.785 l 5
 385.734 798.931 l 5
 385.775 798.85 l 5
 390.263 801.015 395.039 802.052 399.759 802.052 c 4
 410.898 802.052 421.727 796.277 427.7 785.931 c 6
 443.056 760.785 l 5
 269.1 600.965 l 5
 259.622 596.17 249.78 593.655 239.947 593.655 c 4
 230.411 593.655 220.881 596.021 211.697 600.965 c 5
 37.7002 760.785 l 5
 53.0566 785.931 l 6
EndSplineSet
Validated: 1
EndChar

StartChar: circumflex
Encoding: 710 710 78
Width: 479
VWidth: 0
Flags: W
HStem: 587.155 208.396
LayerCount: 2
Fore
SplineSet
53.0566 603.276 m 2
 37.7002 628.423 l 1
 211.697 788.242 l 1
 220.881 793.188 230.409 795.552 239.947 795.552 c 0
 249.78 795.552 259.622 793.036 269.1 788.242 c 1
 443.056 628.423 l 1
 427.7 603.276 l 2
 421.727 592.93 410.898 587.155 399.759 587.155 c 0
 395.039 587.155 390.263 588.192 385.775 590.357 c 1
 385.734 590.276 l 1
 240.378 680.423 l 1
 95.0625 590.276 l 1
 95.0215 590.357 l 1
 90.4971 588.216 85.96 587.23 81.5547 587.23 c 0
 70.4424 587.23 60.1709 593.501 53.0566 603.276 c 2
EndSplineSet
Validated: 1
EndChar

StartChar: ring
Encoding: 730 730 79
Width: 421
VWidth: 0
Flags: W
HStem: 591.54 56.6729<170.816 250.943> 748.646 56.6719<170.816 250.943>
VStem: 104 56.6719<658.375 738.501> 261.105 56.6699<658.375 738.501>
LayerCount: 2
Fore
SplineSet
210.873 805.317 m 0
 269.872 805.317 317.775 757.442 317.775 698.444 c 0
 317.775 639.445 269.872 591.54 210.873 591.54 c 0
 151.874 591.54 104 639.445 104 698.444 c 0
 104 757.442 151.874 805.317 210.873 805.317 c 0
210.874 748.646 m 0
 183.158 748.646 160.672 726.159 160.672 698.443 c 0
 160.672 670.726 183.158 648.213 210.874 648.213 c 0
 238.59 648.213 261.105 670.726 261.105 698.443 c 0
 261.105 726.159 238.59 748.646 210.874 748.646 c 0
EndSplineSet
Validated: 1
EndChar

StartChar: breve
Encoding: 728 728 80
Width: 547
VWidth: 0
Flags: W
HStem: 598.04 95.1416<214.026 334.529>
LayerCount: 2
Fore
SplineSet
124.354 785.77 m 0
 135.955 785.719 148.206 782.058 156.203 773.825 c 0
 187.698 741.4 213.942 693.184 274.26 693.182 c 0
 334.576 693.182 360.788 741.405 392.275 773.825 c 0
 400.327 782.113 412.707 785.766 424.381 785.766 c 0
 434.533 785.766 444.148 783.006 449.922 778.131 c 2
 470.478 760.785 l 1
 421.499 677.127 367.305 598.04 274.26 598.04 c 0
 183.053 598.04 121.69 676.431 78 760.785 c 1
 98.5566 778.131 l 2
 104.33 783.006 113.966 785.77 124.117 785.77 c 0
 124.354 785.77 l 0
EndSplineSet
Validated: 1
EndChar

StartChar: periodcentered
Encoding: 183 183 82
Width: 300
VWidth: 0
Flags: W
HStem: 331.386 145.544<99.3221 202.222>
VStem: 78 145.544<352.708 455.608>
LayerCount: 2
Fore
SplineSet
223.544 404.158 m 4
 223.544 363.988 190.941 331.386 150.772 331.386 c 4
 110.602 331.386 78 363.988 78 404.158 c 4
 78 444.328 110.602 476.93 150.772 476.93 c 4
 190.941 476.93 223.544 444.328 223.544 404.158 c 4
EndSplineSet
Validated: 1
EndChar

StartChar: parenright
Encoding: 41 41 83
Width: 418
VWidth: 0
Flags: W
VStem: 161.829 140.487<-98.9933 -39 -39 581.506 581.506 641.498>
LayerCount: 2
Fore
SplineSet
101.141 793.447 m 0
 102.066 793.454 l 0
 119.402 793.454 138.41 785.832 154.116 767.162 c 2
 275.829 655.525 l 2
 297.929 634.075 302.316 610.172 302.316 581.506 c 2
 302.316 -39 l 2
 302.316 -67.666 297.929 -91.6094 275.829 -113.06 c 2
 154.116 -224.697 l 2
 138.411 -243.365 119.407 -250.985 102.073 -250.985 c 0
 75.001 -250.985 52.001 -232.398 52.001 -208.278 c 0
 52.001 -199.933 54.7539 -190.926 61.0439 -181.797 c 1
 143.514 -96.3223 l 1
 157.923 -74.707 161.829 -66.2988 161.829 -44.6504 c 0
 161.829 -42.8623 161.803 -40.9834 161.754 -39 c 1
 161.51 -39 l 1
 161.51 581.506 l 1
 161.754 581.506 l 1
 161.803 583.489 161.829 585.368 161.829 587.156 c 0
 161.829 608.806 157.923 617.214 143.514 638.828 c 1
 61.0439 724.263 l 1
 54.7539 733.393 52 742.4 52 750.746 c 0
 52 774.591 74.4727 793.028 101.141 793.447 c 0
EndSplineSet
Validated: 1
EndChar

StartChar: parenleft
Encoding: 40 40 84
Width: 418
VWidth: 0
Flags: W
VStem: 117 140.485<-98.9933 -39 -39 581.506 581.506 641.498>
LayerCount: 2
Fore
SplineSet
318.175 793.447 m 0
 344.845 793.027 367.316 774.591 367.316 750.746 c 0
 367.316 742.4 364.562 733.391 358.272 724.263 c 1
 275.803 638.828 l 1
 261.394 617.213 257.485 608.806 257.485 587.156 c 0
 257.485 585.368 257.513 583.489 257.562 581.506 c 1
 257.806 581.506 l 1
 257.806 -39 l 1
 257.562 -39 l 1
 257.513 -40.9834 257.485 -42.8623 257.485 -44.6504 c 0
 257.485 -66.2988 261.394 -74.707 275.803 -96.3223 c 1
 358.272 -181.797 l 1
 364.562 -190.926 367.315 -199.934 367.315 -208.278 c 0
 367.315 -232.398 344.315 -250.985 317.243 -250.985 c 0
 299.908 -250.985 280.905 -243.365 265.2 -224.697 c 2
 143.487 -113.06 l 2
 121.388 -91.6094 117 -67.666 117 -39 c 2
 117 581.506 l 2
 117 610.172 121.388 634.075 143.487 655.525 c 2
 265.2 767.162 l 2
 280.906 785.832 299.912 793.447 317.249 793.447 c 0
 318.175 793.447 l 0
EndSplineSet
Validated: 1
EndChar

StartChar: uni0237
Encoding: 567 567 85
Width: 310
VWidth: 0
Flags: W
VStem: 83.832 142.68<-98.9873 -39 -39 525.104>
LayerCount: 2
Fore
SplineSet
155.012 546 m 4
 194.623 546 226.512 514.111 226.512 474.5 c 6
 226.512 -39 l 6
 226.512 -67.666 219.943 -91.5928 197.843 -113.043 c 6
 76.126 -224.682 l 6
 60.4209 -243.351 41.415 -250.972 24.0781 -250.972 c 4
 -2.99707 -250.972 -26 -232.383 -26 -208.264 c 4
 -26 -199.919 -23.2471 -190.913 -16.957 -181.785 c 5
 65.499 -96.3164 l 5
 79.9131 -74.6963 83.832 -66.2939 83.832 -44.6318 c 4
 83.832 -42.8496 83.8057 -40.9766 83.7559 -39 c 5
 83.5127 -39 l 5
 83.5127 474.5 l 6
 83.5127 514.111 115.401 546 155.012 546 c 4
EndSplineSet
Validated: 1
EndChar

StartChar: tcaron
Encoding: 357 357 194
Width: 527
VWidth: 0
Flags: W
HStem: 0 21G<156 299> 403 143<59.8961 156 299 369.104>
VStem: 156 143<0 403 546 759.104> 430.3 159.637<650.113 752.836> 487.41 102.526<575.378 626.723>
LayerCount: 2
Fore
SplineSet
227.5 780 m 0xe0
 267.111 780 299 748.111 299 708.5 c 2
 299 546 l 1
 318.5 546 l 2
 358.111 546 390 514.111 390 474.5 c 2
 390 403 l 1
 299 403 l 1
 299 0 l 1
 156 0 l 1
 156 403 l 1
 110.5 403 l 2
 70.8896 403 39 434.889 39 474.5 c 0
 39 514.111 70.8896 546 110.5 546 c 2
 156 546 l 1
 156 708.5 l 2
 156 748.111 187.889 780 227.5 780 c 0xe0
511.367 780 m 0
 554.729 780 589.937 744.793 589.937 701.431 c 2xf0
 589.937 646.912 l 2xe8
 589.937 620.259 581.826 596.139 571.411 579.759 c 2
 503.892 483.641 l 2
 492.57 470.182 478.87 464.688 466.378 464.688 c 0
 446.87 464.688 430.3 478.081 430.3 495.464 c 0xf0
 430.3 501.48 432.285 507.974 436.82 514.556 c 2
 480.614 599.178 l 1
 485.956 606.324 487.41 612.68 487.41 619.479 c 0xe8
 487.41 621.824 487.237 624.221 486.992 626.723 c 1
 455.554 636.987 432.839 666.572 432.839 701.431 c 0
 432.839 744.793 468.005 780 511.367 780 c 0
EndSplineSet
Validated: 1
EndChar

StartChar: uni0202
Encoding: 514 514 239
Width: 654
VWidth: 0
Flags: W
HStem: 168.31 143<256.61 396.197> 950.587 95.143<274.214 394.716>
LayerCount: 2
Fore
SplineSet
184.541 858 m 4
 184.304 858 l 4
 174.153 858 164.519 860.764 158.743 865.639 c 6
 138.188 882.984 l 5
 181.878 967.339 243.241 1045.73 334.447 1045.73 c 4
 427.492 1045.73 481.688 966.643 530.666 882.984 c 5
 510.11 865.639 l 6
 504.337 860.764 494.721 858.004 484.569 858.004 c 4
 472.896 858.004 460.516 861.655 452.463 869.944 c 4
 420.976 902.363 394.764 950.587 334.447 950.587 c 4
 274.13 950.586 247.886 902.369 216.391 869.944 c 4
 208.395 861.711 196.144 858.051 184.541 858 c 4
EndSplineSet
Refer: 45 65 N 1 0 0 1 0 0 3
Validated: 1
EndChar

StartChar: uni0203
Encoding: 515 515 240
Width: 640
VWidth: 0
Flags: W
HStem: -7.19922 147.114<169.9 257.889> 218.661 130.017<169.9 281.923> 403 143<157.349 388.191> 716.587 95.142<246.187 366.69>
VStem: 26.9004 143<139.915 218.661> 390.9 143<0 48.9531 139.915 218.661 305.419 400.291>
LayerCount: 2
Fore
SplineSet
156.514 624 m 4
 156.277 624 l 4
 146.127 624 136.491 626.764 130.717 631.639 c 6
 110.161 648.984 l 5
 153.852 733.339 215.214 811.729 306.421 811.729 c 4
 399.466 811.729 453.66 732.643 502.639 648.984 c 5
 482.083 631.639 l 6
 476.31 626.764 466.694 624.004 456.542 624.004 c 4
 444.868 624.004 432.488 627.655 424.438 635.944 c 4
 392.949 668.363 366.737 716.587 306.421 716.587 c 4
 246.104 716.586 219.859 668.369 188.364 635.944 c 4
 180.367 627.712 168.116 624.051 156.514 624 c 4
EndSplineSet
Refer: 3 97 N 1 0 0 1 0 0 3
Validated: 1
EndChar

StartChar: uni0206
Encoding: 518 518 241
Width: 616
VWidth: 0
Flags: W
HStem: 0 143<195.5 550.309> 309.4 143<195.5 498.271> 637 143<195.5 528.204> 950.587 95.143<240.587 361.089>
VStem: 52.5 143<143 309.4 452.4 637>
LayerCount: 2
Fore
SplineSet
150.914 858 m 0
 150.678 858 l 0
 140.527 858 130.892 860.764 125.116 865.639 c 2
 104.562 882.984 l 1
 148.252 967.339 209.614 1045.73 300.82 1045.73 c 0
 393.865 1045.73 448.061 966.643 497.039 882.984 c 1
 476.483 865.639 l 2
 470.71 860.764 461.094 858.004 450.942 858.004 c 0
 439.269 858.004 426.889 861.655 418.836 869.944 c 0
 387.349 902.363 361.137 950.587 300.82 950.587 c 0
 240.503 950.586 214.259 902.369 182.764 869.944 c 0
 174.768 861.711 162.517 858.051 150.914 858 c 0
EndSplineSet
Refer: 59 69 N 1 0 0 1 0 0 3
Validated: 1
EndChar

StartChar: uni0207
Encoding: 519 519 242
Width: 664
VWidth: 0
Flags: W
HStem: -10.4004 143<181.352 458.663> 224.94 98.76<179.081 427.503> 410.8 135.2<180.468 426.035> 716.587 95.142<243.039 363.541>
VStem: 36 143.081<133.462 171.6 171.6 224.94 323.7 409.946> 427.503 143<323.7 409.946>
LayerCount: 2
Fore
SplineSet
153.365 624 m 0
 153.13 624 l 0
 142.979 624 133.343 626.764 127.569 631.639 c 2
 107.013 648.984 l 1
 150.703 733.339 212.066 811.729 303.272 811.729 c 0
 396.317 811.729 450.512 732.643 499.49 648.984 c 1
 478.935 631.639 l 2
 473.161 626.764 463.545 624.004 453.395 624.004 c 0
 441.72 624.004 429.34 627.655 421.287 635.944 c 0
 389.8 668.363 363.588 716.587 303.272 716.587 c 0
 242.955 716.586 216.71 668.369 185.215 635.944 c 0
 177.219 627.712 164.968 624.051 153.365 624 c 0
EndSplineSet
Refer: 11 101 N 1 0 0 1 0 0 3
Validated: 1
EndChar

StartChar: uni020A
Encoding: 522 522 243
Width: 261
VWidth: 0
Flags: W
HStem: 0 21<52 195> 950.587 95.143<99.0375 219.54>
VStem: 52 143<0 759.104>
LayerCount: 2
Fore
SplineSet
9.36426 858 m 0
 9.12793 858 l 0
 -1.02344 858 -10.6592 860.764 -16.4326 865.639 c 2
 -36.9893 882.984 l 1
 6.70215 967.339 68.0645 1045.73 159.271 1045.73 c 0
 252.315 1045.73 306.51 966.643 355.489 882.984 c 1
 334.934 865.639 l 2
 329.16 860.764 319.544 858.004 309.393 858.004 c 0
 297.718 858.004 285.338 861.655 277.286 869.944 c 0
 245.799 902.363 219.587 950.587 159.271 950.587 c 0
 98.9541 950.586 72.709 902.369 41.2139 869.944 c 0
 33.2178 861.711 20.9658 858.051 9.36426 858 c 0
EndSplineSet
Refer: 49 73 N 1 0 0 1 0 0 3
Validated: 1
EndChar

StartChar: uni020B
Encoding: 523 523 244
Width: 312
VWidth: 0
Flags: W
HStem: 0 21<85.6113 228.61> 716.587 95.1426<95.7873 216.29>
VStem: 85.6113 142.999<0 525.104>
LayerCount: 2
Fore
SplineSet
6.11426 624 m 0
 5.87793 624 l 0
 -4.27344 624 -13.9092 626.764 -19.6826 631.639 c 2
 -40.2393 648.984 l 1
 3.45215 733.339 64.8145 811.729 156.021 811.729 c 0
 249.065 811.729 303.26 732.643 352.239 648.984 c 1
 331.684 631.639 l 2
 325.91 626.764 316.294 624.004 306.143 624.004 c 0
 294.468 624.004 282.088 627.655 274.036 635.944 c 0
 242.549 668.363 216.337 716.587 156.021 716.587 c 0
 95.7041 716.586 69.459 668.369 37.9639 635.944 c 0
 29.9678 627.712 17.7158 624.051 6.11426 624 c 0
EndSplineSet
Refer: 76 305 N 1 0 0 1 0 0 3
Validated: 1
EndChar

StartChar: uni020E
Encoding: 526 526 245
Width: 674
VWidth: 0
Flags: W
HStem: 0 143<191.968 463.535> 637 143<191.968 463.535> 950.587 95.143<267.539 388.041>
VStem: 47.5 143.081<144.468 635.532> 464.922 143.081<144.468 635.532>
LayerCount: 2
Fore
SplineSet
177.865 858 m 0
 177.63 858 l 0
 167.479 858 157.843 860.764 152.069 865.639 c 2
 131.513 882.984 l 1
 175.203 967.339 236.566 1045.73 327.772 1045.73 c 0
 420.817 1045.73 475.012 966.643 523.99 882.984 c 1
 503.435 865.639 l 2
 497.661 860.764 488.045 858.004 477.894 858.004 c 0
 466.22 858.004 453.84 861.655 445.787 869.944 c 0
 414.3 902.363 388.088 950.587 327.772 950.587 c 0
 267.455 950.586 241.21 902.369 209.715 869.944 c 0
 201.719 861.711 189.468 858.051 177.865 858 c 0
EndSplineSet
Refer: 38 79 N 1 0 0 1 0 0 3
Validated: 1
EndChar

StartChar: uni020F
Encoding: 527 527 246
Width: 715
VWidth: 0
Flags: W
HStem: -9.09961 143<181.468 451.532> 404.3 141.7<181.468 451.532> 716.587 95.142<256.287 376.79>
VStem: 37 143.081<135.367 402.801> 452.919 143.081<135.367 402.801>
LayerCount: 2
Fore
SplineSet
166.614 624 m 0
 166.377 624 l 0
 156.227 624 146.591 626.764 140.816 631.639 c 2
 120.261 648.984 l 1
 163.951 733.339 225.314 811.729 316.521 811.729 c 0
 409.565 811.729 463.76 732.643 512.739 648.984 c 1
 492.184 631.639 l 2
 486.41 626.764 476.794 624.004 466.643 624.004 c 0
 454.968 624.004 442.588 627.655 434.536 635.944 c 0
 403.049 668.363 376.837 716.587 316.521 716.587 c 0
 256.203 716.586 229.959 668.369 198.464 635.944 c 0
 190.468 627.712 178.217 624.051 166.614 624 c 0
EndSplineSet
Refer: 8 111 N 1 0 0 1 0 0 3
Validated: 1
EndChar

StartChar: uni0212
Encoding: 530 530 247
Width: 619
VWidth: 0
Flags: W
HStem: 0 21<52.5 195.5> 309.4 143<195.5 315.345> 635.78 144.22<195.5 386.526> 950.587 95.143<219.787 340.29>
VStem: 52.5 143<0 309.4 452.4 635.78> 390.5 143<452.4 465.4 465.4 633.788>
LayerCount: 2
Fore
SplineSet
130.114 858 m 4
 129.877 858 l 4
 119.727 858 110.091 860.764 104.316 865.639 c 6
 83.7607 882.984 l 5
 127.451 967.339 188.814 1045.73 280.021 1045.73 c 4
 373.065 1045.73 427.26 966.643 476.239 882.984 c 5
 455.684 865.639 l 6
 449.91 860.764 440.294 858.004 430.143 858.004 c 4
 418.468 858.004 406.088 861.655 398.036 869.944 c 4
 366.549 902.363 340.337 950.587 280.021 950.587 c 4
 219.703 950.586 193.459 902.369 161.964 869.944 c 4
 153.968 861.711 141.717 858.051 130.114 858 c 4
EndSplineSet
Refer: 42 82 N 1 0 0 1 0 0 3
Validated: 1
EndChar

StartChar: uni0213
Encoding: 531 531 248
Width: 550
VWidth: 0
Flags: W
HStem: 0 21<42 185> 403 145.65<257.902 440.317> 719.238 95.142<222.319 342.821>
VStem: 42 143<0 403 505.7 546>
LayerCount: 2
Fore
SplineSet
132.646 626.65 m 0
 132.41 626.65 l 0
 122.258 626.65 112.622 629.414 106.85 634.289 c 2
 86.293 651.636 l 1
 129.984 735.99 191.347 814.38 282.552 814.38 c 0
 375.597 814.38 429.793 735.293 478.771 651.636 c 1
 458.215 634.289 l 2
 452.442 629.414 442.825 626.654 432.675 626.654 c 0
 420.999 626.654 408.621 630.308 400.567 638.595 c 0
 369.081 671.015 342.869 719.238 282.552 719.238 c 0
 222.236 719.236 195.99 671.02 164.496 638.595 c 0
 156.499 630.363 144.248 626.701 132.646 626.65 c 0
EndSplineSet
Refer: 6 114 N 1 0 0 1 0 0 3
Validated: 1
EndChar

StartChar: uni0216
Encoding: 534 534 249
Width: 640
VWidth: 0
Flags: W
HStem: 0 143.122<194.5 431.141> 956.276 95.144<63.0902 183.593>
VStem: 51.5 143<143.127 766.709> 431.141 143<143.127 760.723>
LayerCount: 2
Fore
SplineSet
-26.583 863.688 m 0
 -26.8184 863.688 l 0
 -36.9697 863.688 -46.6055 866.452 -52.3799 871.327 c 2
 -72.9355 888.674 l 1
 -29.2451 973.027 32.1182 1051.42 123.323 1051.42 c 0
 216.368 1051.42 270.564 972.331 319.543 888.674 c 1
 298.986 871.327 l 2
 293.214 866.452 283.597 863.692 273.446 863.692 c 0
 261.771 863.692 249.393 867.345 241.339 875.633 c 0
 209.853 908.053 183.64 956.276 123.323 956.276 c 0
 63.0068 956.274 36.7617 908.058 5.26758 875.633 c 0
 -2.72949 867.398 -14.9805 863.739 -26.583 863.688 c 0
EndSplineSet
Refer: 47 85 N 1 0 0 1 0 0 3
Validated: 1
EndChar

StartChar: uni0217
Encoding: 535 535 250
Width: 591
VWidth: 0
Flags: W
HStem: -2.00781 145.07<185 305.768> 716.587 95.142<235.287 355.79>
VStem: 42 143<143.062 546> 406 143<0 41.0723 143.062 156 156 546>
LayerCount: 2
Fore
SplineSet
145.614 624 m 0
 145.377 624 l 0
 135.227 624 125.591 626.764 119.816 631.639 c 2
 99.2607 648.984 l 1
 142.951 733.339 204.314 811.729 295.521 811.729 c 0
 388.565 811.729 442.76 732.643 491.739 648.984 c 1
 471.184 631.639 l 2
 465.41 626.764 455.794 624.004 445.643 624.004 c 0
 433.968 624.004 421.588 627.655 413.536 635.944 c 0
 382.049 668.363 355.837 716.587 295.521 716.587 c 0
 235.203 716.586 208.959 668.369 177.464 635.944 c 0
 169.468 627.712 157.217 624.051 145.614 624 c 0
EndSplineSet
Refer: 4 117 N 1 0 0 1 0 0 3
Validated: 1
EndChar

StartChar: cedilla
Encoding: 184 184 411
Width: 475
VWidth: 0
Flags: W
HStem: -226.047 77.3525<178.58 271.766> -97.6602 69.4385<208.966 271.688>
VStem: 138.791 70.1748<-30.0879 21.6865> 272.459 70.2158<-148.151 -98.3987>
LayerCount: 2
Fore
SplineSet
256.631 -226.047 m 0
 217.753 -226.047 138.791 -186.313 138.791 -186.313 c 2
 134.761 -185.233 133.688 -182.148 133.984 -179.855 c 2
 133.984 -148.694 l 1
 266.199 -148.694 l 2
 269.708 -148.694 272.459 -145.862 272.459 -142.354 c 2
 272.459 -104 l 2
 272.459 -100.491 270.92 -97.6602 266.12 -97.6602 c 2
 209.338 -97.6602 l 2
 177.439 -97.6602 138.791 -72.8086 138.791 -30.0879 c 2
 138.791 21.6865 l 1
 208.966 21.6865 l 1
 208.966 -30.0879 l 1
 209.498 -30.0879 256.551 -28.2217 256.551 -28.2217 c 2
 312.868 -28.2217 342.675 -64.7979 342.675 -111.157 c 2
 342.675 -135.197 l 2
 342.675 -181.556 312.947 -226.047 256.631 -226.047 c 0
EndSplineSet
Validated: 1
EndChar

StartChar: Ccedilla
Encoding: 199 199 412
Width: 629
VWidth: 0
Flags: W
HStem: -239.476 77.3525<323.953 417.139> -111.088 69.4385<354.34 417.062> -0 143<241.968 284.164 354.34 542.627> 637 143<241.968 529.172>
VStem: 97.5 143.081<144.468 635.532> 284.164 70.1758<-43.5156 0> 417.833 70.2158<-161.579 -111.827>
LayerCount: 2
Fore
SplineSet
402.004 -239.476 m 0
 363.126 -239.476 284.164 -199.741 284.164 -199.741 c 2
 280.135 -198.661 279.062 -195.576 279.358 -193.284 c 2
 279.358 -162.123 l 1
 411.573 -162.123 l 2
 415.082 -162.123 417.833 -159.29 417.833 -155.781 c 2
 417.833 -117.428 l 2
 417.833 -113.919 416.294 -111.088 411.494 -111.088 c 2
 354.712 -111.088 l 2
 322.813 -111.088 284.164 -86.2363 284.164 -43.5156 c 2
 284.164 -0 l 1
 268.003 0 l 2
 173.536 0 97.5 76.0361 97.5 170.503 c 2
 97.5 609.497 l 2
 97.5 703.964 173.536 780 268.003 780 c 2
 474.5 780 l 2
 543.445 778.724 578.5 703.463 578.5 640.427 c 0
 578.5 639.28 578.5 638.138 578.5 637 c 1
 253.5 637 l 2
 246.35 637 240.581 631.23 240.581 624.08 c 2
 240.581 155.919 l 2
 240.581 148.77 246.35 143 253.5 143 c 2
 591.5 143 l 1
 591.5 78 552.5 0 487.5 0 c 2
 354.34 -0 l 1
 354.34 -43.5156 l 1
 354.871 -43.5156 401.925 -41.6494 401.925 -41.6494 c 2
 458.242 -41.6494 488.049 -78.2256 488.049 -124.586 c 2
 488.049 -148.625 l 2
 488.049 -194.983 458.321 -239.476 402.004 -239.476 c 0
EndSplineSet
Validated: 1
EndChar

StartChar: ccedilla
Encoding: 231 231 413
Width: 587
VWidth: 0
Flags: W
HStem: -248.575 77.3525<286.192 379.379> -120.188 69.4375<316.577 379.302> -9.09961 141.497<221.537 246.403 316.577 502.984> 403 141.497<222.653 502.984>
VStem: 78 143.081<134.431 401.495> 246.403 70.1738<-52.6152 -9.09961> 380.072 70.2148<-170.679 -120.927>
LayerCount: 2
Fore
SplineSet
364.243 -248.575 m 0
 325.365 -248.575 246.403 -208.841 246.403 -208.841 c 2
 242.372 -207.761 241.301 -204.676 241.598 -202.384 c 2
 241.598 -171.223 l 1
 373.812 -171.223 l 2
 377.321 -171.223 380.072 -168.391 380.072 -164.882 c 2
 380.072 -126.527 l 2
 380.072 -123.019 378.532 -120.188 373.731 -120.188 c 2
 316.95 -120.188 l 2
 285.053 -120.188 246.403 -95.3369 246.403 -52.6152 c 2
 246.403 -9.00391 l 1
 136.236 -5.98828 78 67.3994 78 159.9 c 2
 78 375.497 l 2
 78 469.964 138.738 544.497 253.5 544.497 c 2
 442.081 544.497 l 2
 551.28 544.497 556.4 403 556.4 403 c 1
 234 403 l 2
 226.85 403 221.081 397.23 221.081 390.081 c 2
 221.081 145.315 l 2
 221.081 138.165 226.85 132.397 234 132.397 c 2
 556.4 132.397 l 1
 556.4 132.397 551.28 -9.09961 442.081 -9.09961 c 2
 316.577 -9.09961 l 1
 316.577 -52.6152 l 1
 317.11 -52.6152 364.164 -50.75 364.164 -50.75 c 2
 420.481 -50.75 450.287 -87.3262 450.287 -133.686 c 2
 450.287 -157.725 l 2
 450.287 -204.083 420.561 -248.575 364.243 -248.575 c 0
EndSplineSet
Validated: 1
EndChar

StartChar: numbersign
Encoding: 35 35 414
Width: 705
VWidth: 0
Flags: W
HStem: 0 21G<98.5977 191.841 413.821 451.841> 223.6 101.4<45.8409 130.354 286.883 390.354 546.883 631.376> 444.6 101.4<75.2939 159.808 316.336 419.808 576.336 660.85>
VStem: 195.232 143.615<657.767 710.287 710.287 753.374>
LayerCount: 2
Fore
SplineSet
276.035 780 m 0
 312.464 780 338.848 753.697 338.848 719.436 c 0
 338.848 716.443 338.646 713.391 338.232 710.287 c 2
 316.336 546 l 1
 433.336 546 l 1
 455.232 710.287 l 2
 460.381 748.9 496.425 780 536.035 780 c 2
 607.696 780 l 1
 576.336 546 l 1
 629.636 546 l 2
 655.469 546 674.19 527.34 674.19 503.044 c 0
 674.19 500.923 674.047 498.758 673.754 496.56 c 2
 673.389 494.04 l 2
 669.738 466.661 644.195 444.6 616.107 444.6 c 2
 562.808 444.6 l 1
 546.883 325 l 1
 600.183 325 l 2
 626.013 325 644.697 306.345 644.697 282.055 c 0
 644.697 279.931 644.556 277.762 644.261 275.56 c 2
 643.936 273.04 l 2
 640.284 245.661 614.742 223.6 586.653 223.6 c 2
 533.354 223.6 l 1
 512.838 69.7129 l 2
 507.69 31.0996 471.646 0 432.035 0 c 0
 395.606 0 369.225 26.3037 369.225 60.5645 c 0
 369.225 63.5566 369.426 66.6094 369.838 69.7129 c 2
 390.354 223.6 l 1
 273.354 223.6 l 1
 252.838 69.7129 l 2
 247.69 31.0996 211.646 0 172.035 0 c 2
 98.5977 0 l 1
 130.354 223.6 l 1
 77.0547 223.6 l 2
 51.2217 223.6 32.5 242.26 32.5 266.556 c 0
 32.5 268.678 32.6426 270.842 32.9355 273.04 c 2
 33.2607 275.56 l 2
 36.9121 302.939 62.4941 325 90.582 325 c 2
 143.883 325 l 1
 159.808 444.6 l 1
 106.507 444.6 l 2
 80.6748 444.6 61.9531 463.26 61.9531 487.556 c 0
 61.9531 489.678 62.0957 491.842 62.3887 494.04 c 2
 62.7539 496.56 l 2
 66.4053 523.939 91.9473 546 120.035 546 c 2
 173.336 546 l 1
 195.232 710.287 l 2
 200.381 748.9 236.425 780 276.035 780 c 0
302.808 444.6 m 1
 286.883 325 l 1
 403.883 325 l 1
 419.808 444.6 l 1
 302.808 444.6 l 1
EndSplineSet
Validated: 1
EndChar

StartChar: dollar
Encoding: 36 36 415
Width: 621
VWidth: 0
Flags: W
HStem: -1.25977 132.6<110.581 270.4 351 415.197> 309.928 143.772<195 418.6> 647.4 132.6<195 270.4 351 496.237>
VStem: 52 143<453.705 647.4> 270.4 80.5996<-97.0043 -1.25977 780 871.804> 418.6 143<133.324 144.3 144.3 307.009>
LayerCount: 2
Fore
SplineSet
351 876.2 m 1
 351 780 l 1
 431.6 780 l 2
 494.652 778.894 535.6 738.106 535.6 647.4 c 1
 208 647.4 l 2
 200.632 647.4 195 641.213 195 634.319 c 2
 195 466.213 l 2
 195 460.237 201.5 453.7 208 453.7 c 2
 418.6 453.7 l 2
 510.646 453.7 561.6 381.565 561.6 303.348 c 2
 561.6 141.74 l 2
 561.6 50.7402 509.6 -1.25977 405.6 -1.25977 c 2
 351 -1.25977 l 1
 351 -61.0996 l 2
 351 -83.4258 333.026 -101.4 310.7 -101.4 c 2
 270.4 -101.4 l 1
 270.4 -1.25977 l 1
 169 -1.25977 l 2
 101.585 -1.25977 78 53.3037 78 131.34 c 1
 405.6 131.34 l 2
 412.495 131.34 418.6 137.405 418.6 144.3 c 2
 418.6 298.513 l 2
 418.6 304.718 412.035 309.928 405.6 309.928 c 2
 195 309.928 l 2
 115.155 309.928 52 366.077 52 442.73 c 2
 52 663 l 2
 53.5645 725.575 104.266 780 195 780 c 2
 270.4 780 l 1
 270.4 835.9 l 2
 270.4 858.227 288.374 876.2 310.7 876.2 c 2
 351 876.2 l 1
EndSplineSet
Validated: 1
EndChar

StartChar: Euro
Encoding: 8364 8364 416
Width: 631
VWidth: 0
Flags: W
HStem: 0 143<242.969 543.927> 249.6 101.4<35.5495 98.7998 241.8 423.713> 418.6 101.4<35.5495 98.7998 241.8 423.713> 637 143<242.969 530.48>
VStem: 98.7998 143<144.17 249.6 351 418.6 520 635.83>
LayerCount: 2
Fore
SplineSet
269.1 780 m 2
 475.8 780 l 2
 544.745 778.724 579.835 703.463 579.835 640.427 c 0
 579.835 639.28 579.823 638.138 579.8 637 c 1
 254.8 637 l 2
 247 637 241.8 631.8 241.8 624 c 2
 241.8 520 l 1
 382.2 520 l 2
 410.8 520 432.9 497.9 432.9 469.3 c 2
 432.9 418.6 l 1
 241.8 418.6 l 1
 241.8 351 l 1
 432.9 351 l 1
 432.9 300.3 l 2
 432.9 271.7 410.8 249.6 382.2 249.6 c 2
 241.8 249.6 l 1
 241.8 156 l 2
 241.8 148.2 247 143 254.8 143 c 2
 592.8 143 l 1
 592.8 78 553.8 0 488.8 0 c 2
 269.1 0 l 2
 174.2 0 98.7998 75.4004 98.7998 170.3 c 2
 98.7998 249.6 l 1
 76.7002 249.6 l 2
 49.4004 249.6 26 271.7 26 300.3 c 2
 26 351 l 1
 98.7998 351 l 1
 98.7998 418.6 l 1
 26 418.6 l 1
 26 469.3 l 2
 26 497.9 49.4004 520 76.7002 520 c 2
 98.7998 520 l 1
 98.7998 609.7 l 2
 98.7998 704.6 174.2 780 269.1 780 c 2
EndSplineSet
Validated: 1
EndChar

StartChar: percent
Encoding: 37 37 417
Width: 829
VWidth: 0
Flags: W
HStem: 0 105.548<565.433 684.316> 297.453 105.547<565.433 684.316> 377 105.547<145.631 264.513> 674.453 105.547<145.631 264.513>
VStem: 39 105.606<483.631 673.369> 265.538 105.606<483.631 673.369> 458.803 105.606<106.631 296.369> 685.341 105.606<106.631 296.369>
LayerCount: 2
Fore
SplineSet
584.649 403 m 2xdf
 665.1 403 l 2
 734.825 403 790.947 346.878 790.947 277.152 c 2
 790.947 125.848 l 2
 790.947 56.1221 734.825 0 665.1 0 c 2
 584.649 0 l 2
 514.925 0 458.803 56.1221 458.803 125.848 c 2
 458.803 277.152 l 2
 458.803 346.878 514.925 403 584.649 403 c 2xdf
573.944 297.453 m 2
 568.668 297.453 564.409 293.194 564.409 287.918 c 2
 564.409 115.083 l 2
 564.409 109.806 568.668 105.548 573.944 105.548 c 2
 675.805 105.548 l 2
 681.082 105.548 685.341 109.806 685.341 115.083 c 2
 685.341 287.918 l 2
 685.341 293.194 681.082 297.453 675.805 297.453 c 2
 573.944 297.453 l 2
164.848 780 m 2
 245.297 780 l 2
 315.022 780 371.145 723.878 371.145 654.152 c 2
 371.145 502.848 l 2
 371.145 433.122 315.022 377 245.297 377 c 2
 164.848 377 l 2xbf
 95.1221 377 39 433.122 39 502.848 c 2
 39 654.152 l 2
 39 723.878 95.1221 780 164.848 780 c 2
154.143 674.453 m 2
 148.865 674.453 144.606 670.194 144.606 664.918 c 2
 144.606 492.082 l 2
 144.606 486.806 148.865 482.547 154.143 482.547 c 2
 256.003 482.547 l 2
 261.279 482.547 265.538 486.806 265.538 492.082 c 2
 265.538 664.918 l 2
 265.538 670.194 261.279 674.453 256.003 674.453 c 2
 154.143 674.453 l 2
584.094 771.539 m 2
 594.868 791.187 599.452 799.544 607.888 799.544 c 0
 614.135 799.544 622.493 794.96 637.042 786.982 c 1
 656.688 776.208 665.046 771.624 665.046 763.188 c 0
 665.046 756.941 660.463 748.583 652.483 734.033 c 2
 252.382 4.48242 l 2
 241.607 -15.1631 237.023 -23.5215 228.588 -23.5215 c 0
 222.342 -23.5215 213.982 -18.9375 199.433 -10.959 c 1
 179.787 -0.18457 171.429 4.40039 171.429 12.835 c 0
 171.429 19.082 176.012 27.4404 183.991 41.9893 c 2
 584.094 771.539 l 2
EndSplineSet
Validated: 1
EndChar

StartChar: ampersand
Encoding: 38 38 418
Width: 676
VWidth: 0
Flags: W
HStem: 0 143<222.706 460.358> 224.9 98.7998<418.159 461.744 604.825 656.396> 390 111.881<237.777 344.844> 650 132.6<237.778 500.381>
VStem: 78 143<143.003 169 169 389.452> 94.9004 142.877<502.539 533 533 650> 461.744 143.081<144.468 224.9>
LayerCount: 2
Fore
SplineSet
237.737 782.6 m 2xf6
 435.744 782.6 l 2
 498.796 781.494 539.744 740.706 539.744 650 c 1
 250.372 650 l 2
 244.126 650 239.156 648.854 237.777 643.297 c 1
 237.777 516.02 l 2xf6
 237.777 507.855 244.326 501.881 251.59 501.881 c 2
 302.169 501.881 l 2
 329.47 501.881 357.744 475.168 357.744 448.5 c 2
 357.744 390 l 1
 234 390 l 2
 227.662 389.838 221.162 383.581 221 377.081 c 2
 221 154.415 l 2
 221 147.266 227.095 143 234.244 143 c 2
 448.825 143 l 2
 455.975 143 461.744 148.77 461.744 155.919 c 2
 461.744 224.9 l 1
 459.145 224.9 l 2
 431.776 224.9 409.744 246.933 409.744 274.3 c 0
 409.744 301.668 431.776 323.7 459.145 323.7 c 2
 676.244 323.7 l 1
 676.244 279.48 672.327 232.735 607.345 224.9 c 2
 604.825 224.9 l 1
 604.825 170.503 l 2
 604.825 76.0361 528.789 0 434.322 0 c 2
 248.747 0 l 2
 154.28 0 78 74.5332 78 169 c 2
 78 365.311 l 2xfa
 78 422.5 136.744 442 162.744 448.5 c 1
 136.744 455 94.9004 481 94.9004 533 c 2
 94.8184 672.547 l 1
 94.8184 673.359 l 1
 94.9404 673.319 l 1
 98.7227 734.021 149.14 782.6 237.737 782.6 c 2xf6
EndSplineSet
Validated: 1
EndChar

StartChar: OE
Encoding: 338 338 419
Width: 872
VWidth: 0
Flags: W
HStem: 0 143<241.968 387.603 530.603 774.912> 309.4 143<530.603 722.873> 637 143<241.968 387.603 530.603 752.807>
VStem: 97.5 143.081<144.468 170.503 170.503 635.532> 387.603 143<143 309.4 452.4 637>
LayerCount: 2
Fore
SplineSet
268.003 780 m 2
 773.703 780 l 1
 773.703 708.5 l 2
 773.703 668.889 741.813 637 702.203 637 c 2
 530.603 637 l 1
 530.603 452.4 l 1
 673.603 452.4 l 2
 713.036 448.645 745.103 420.511 745.103 380.9 c 0
 745.103 341.289 712.936 314.083 673.603 309.4 c 2
 530.603 309.4 l 1
 530.603 143 l 1
 725.603 143 l 2
 765.036 139.244 797.103 111.11 797.103 71.5 c 0
 797.103 31.8896 765.162 2.04688 725.603 0 c 0
 573.07 0 420.536 0 268.003 0 c 0
 173.536 0 97.5 76.0361 97.5 170.503 c 2
 97.5 609.497 l 2
 97.5 703.964 173.536 780 268.003 780 c 2
253.5 637 m 2
 246.35 637 240.581 631.23 240.581 624.08 c 2
 240.581 155.919 l 2
 240.581 148.77 246.35 143 253.5 143 c 2
 387.603 143 l 1
 387.603 290.926 387.603 489.074 387.603 637 c 1
 253.5 637 l 2
EndSplineSet
Validated: 1
EndChar

StartChar: oe
Encoding: 339 339 420
Width: 890
VWidth: 0
Flags: W
HStem: -1.21875 142.999<222.468 366.3 511.698 726.9> 224.94 91.4072<510.816 695.742> 403.447 142.553<222.468 367.003 512.678 694.273>
VStem: 78 143.081<144.468 170.503 170.503 401.532> 367.207 143.527<143.163 224.94 316.348 402.996> 695.742 143<316.348 401.532>
LayerCount: 2
Fore
SplineSet
248.503 546 m 2
 339.785 546 l 2
 376.863 546 411.074 534.297 438.992 514.353 c 1
 466.908 534.299 501.159 546 538.237 546 c 2
 668.237 546 l 2
 762.705 546 838.742 469.964 838.742 375.497 c 2
 838.742 224.94 l 1
 510.816 224.94 l 1
 510.816 169.081 l 2
 510.816 153.48 521.135 141.78 536.734 141.78 c 2
 631.838 141.78 l 1
 787.838 141.78 l 1
 787.838 50.7812 735.838 -1.21875 631.838 -1.21875 c 2
 536.734 -1.21875 l 2
 497.332 -1.21875 463.549 10.5664 436.757 30.1035 c 1
 409.256 11.1094 375.886 0 339.785 0 c 2
 248.503 0 l 2
 154.037 0 78 76.0361 78 170.503 c 2
 78 375.497 l 2
 78 469.964 154.037 546 248.503 546 c 2
536.734 403.447 m 2
 523.734 403.447 510.734 390.447 510.734 377.447 c 2
 510.734 316.348 l 1
 695.742 316.348 l 1
 695.742 377.447 l 2
 695.742 390.447 682.742 403.447 669.742 403.447 c 2
 536.734 403.447 l 2
234 403 m 2
 226.85 403 221.081 397.23 221.081 390.081 c 2
 221.081 155.919 l 2
 221.081 148.77 226.85 143 234 143 c 2
 354.288 143 l 2
 361.438 143 367.207 148.77 367.207 155.919 c 2
 367.207 390.081 l 2
 367.207 397.23 361.438 403 354.288 403 c 2
 234 403 l 2
EndSplineSet
Validated: 1
EndChar

StartChar: ae
Encoding: 230 230 421
Width: 865
VWidth: 0
Flags: W
HStem: -7.7998 140.399<519.532 708.967> -7.21582 147.128<198.9 273.203> 218.645 130.04<198.905 291.454> 224.94 98.7598<516.83 674.253> 403 143<186.349 372.495> 410.8 135.2<518.605 672.785>
VStem: 55.9004 143<139.912 218.645> 373.75 143.08<139.948 218.645 323.7 402.675> 674.253 143<323.7 409.946>
LayerCount: 2
Fore
SplineSet
237.9 546 m 2x6b80
 308.75 546 l 2x6b80
 361.128 546 405.036 533.305 438.831 509.681 c 1
 467.807 532.442 504.379 546 544.253 546 c 2
 646.75 546 l 2
 741.217 546 817.253 469.964 817.253 375.497 c 2
 817.253 224.94 l 1
 516.83 224.94 l 1
 516.83 159.9 l 2
 516.83 144.3 527.15 132.6 542.75 132.6 c 2
 610.35 132.6 l 1
 766.35 132.6 l 1
 766.35 41.5996 719.55 -7.7998 615.55 -7.7998 c 2
 547.95 -7.7998 l 2x9780
 438.472 -7.7998 422.975 20.5332 373.75 48.9531 c 1
 230.75 0 l 2
 211.505 -4.91406 193.984 -7.21582 178.123 -7.21582 c 0
 93.2725 -7.21582 55.9004 58.6631 55.9004 143 c 2
 55.9004 236.6 l 2
 55.9004 311.318 99.9482 348.685 175.373 348.685 c 0
 192.483 348.685 211.208 346.762 231.4 342.915 c 2
 373.75 305.419 l 1
 373.75 375.497 l 1
 373.75 390 l 2
 373.588 396.5 367.088 402.838 360.75 403 c 2
 146.9 403 l 1
 146.9 403 146.891 403.464 146.891 404.34 c 0
 146.891 418.831 149.411 546 237.9 546 c 2x6b80
542.75 410.8 m 2x1780
 529.75 410.8 516.75 397.8 516.75 384.8 c 2
 516.75 338 l 1
 516.75 323.7 l 1
 674.253 323.7 l 1
 674.253 384.8 l 2
 674.253 397.8 661.253 410.8 648.253 410.8 c 2
 542.75 410.8 l 2x1780
212.225 218.645 m 2x6380
 205.067 218.645 198.9 212.801 198.9 205.645 c 2
 198.9 153.237 l 2
 198.9 146.729 205.716 139.912 211.9 139.912 c 2
 373.75 139.912 l 1
 373.75 171.6 l 1
 373.75 218.645 l 1
 212.225 218.645 l 2x6380
EndSplineSet
Validated: 1
EndChar

StartChar: AE
Encoding: 198 198 422
Width: 1058
VWidth: 0
Flags: W
HStem: 0 143<639.077 993.887> 168.31 143<319.277 496.077> 309.4 143<639.077 941.848> 637 143<639.077 971.781>
VStem: 496.077 143<143 168.31 452.4 612.625>
LayerCount: 2
Fore
SplineSet
496.077 780 m 1xd8
 496.077 780 517.443 780 519.558 780 c 0
 526.678 780 572.688 780 598.573 780 c 0
 727.681 780 992.678 780 992.678 780 c 1
 992.678 708.5 l 2
 992.678 668.889 960.787 637 921.178 637 c 2
 639.077 637 l 1
 639.077 452.4 l 1
 892.577 452.4 l 2
 932.011 448.645 964.077 420.511 964.077 380.9 c 0
 964.077 341.289 931.91 314.083 892.577 309.4 c 2
 639.077 309.4 l 1xb8
 639.077 143 l 1
 944.577 143 l 2
 984.011 139.244 1016.08 111.11 1016.08 71.5 c 0
 1016.08 31.8896 984.135 2.04688 944.577 0 c 2
 496.077 0 l 1
 496.077 0 496.077 111.347 496.077 168.31 c 1
 241.317 168.31 l 1
 165.836 42.4531 l 2
 147.129 8.91406 114.118 -6.00098 82.4473 -6.00098 c 0
 40.0205 -6.00098 -0 20.7666 -0 65.3887 c 0
 -0 78.9316 3.68652 94.1201 12.1113 110.703 c 2
 370.708 701.431 l 2
 394.423 737.401 449.571 769.001 496.077 777.645 c 1
 496.077 777.657 496.077 780 496.077 780 c 1xd8
496.077 612.625 m 1
 319.277 311.31 l 1
 496.077 311.31 l 1xd8
 496.077 437.369 l 2
 496.077 523.705 496.077 553.552 496.077 612.625 c 1
EndSplineSet
Validated: 1
EndChar

StartChar: asciitilde
Encoding: 126 126 423
Width: 622
VWidth: 0
Flags: W
HStem: 131.585 141.062<373.948 500.16> 222.612 141.185<123.699 249.911>
LayerCount: 2
Fore
SplineSet
182.723 363.797 m 0x40
 184.527 363.807 186.366 363.764 188.206 363.675 c 0
 280.774 351.437 349.128 290.286 440.528 272.715 c 0
 441.233 272.67 441.954 272.647 442.691 272.647 c 0
 469.471 272.647 517.246 302.389 543.025 320.369 c 0
 548.813 324.406 554.992 326.182 561.176 326.182 c 0
 585.98 326.182 610.861 297.615 610.861 271.782 c 0
 610.861 261.938 607.248 252.491 598.641 245.172 c 1
 598.926 244.806 l 1
 563.64 204.185 497.128 131.73 441.138 131.463 c 0
 439.331 131.453 437.491 131.495 435.653 131.585 c 0x80
 343.084 143.823 274.731 204.974 183.331 222.544 c 0
 182.627 222.59 181.906 222.612 181.168 222.612 c 0
 154.388 222.612 106.612 192.869 80.835 174.891 c 0
 75.0469 170.854 68.8672 169.078 62.6836 169.078 c 0
 37.8799 169.078 13 197.645 13 223.477 c 0
 13 233.321 16.6123 242.769 25.2188 250.088 c 1
 24.9346 250.453 l 1
 60.2188 291.074 126.732 363.529 182.723 363.797 c 0x40
EndSplineSet
Validated: 1
EndChar

StartChar: germandbls
Encoding: 223 223 427
Width: 643
VWidth: 0
Flags: W
HStem: 0 143<312.526 441.973> 339.625 117.975<221 415.996> 651.381 127.563<222.332 412.598>
VStem: 78 143<-211.7 339.625 457.6 648.869> 416 143<457.6 470.6 470.6 649.367> 442.325 143<143.004 156 156 339.554>
LayerCount: 2
Fore
SplineSet
78 637 m 2xf4
 78 722.811 141.662 778.944 235.299 778.944 c 2
 403 778.944 l 2
 507.005 778.944 559 715 559 629.81 c 2
 559 452.4 l 2xf8
 559 428.09 533 390 494 390 c 1
 533 390 585.325 348.845 585.325 302.453 c 2
 585.325 143 l 2
 585.325 48.7314 500.825 0 435.825 0 c 2
 354.415 0 l 2
 304.535 0 276.251 76.3633 276.251 135.354 c 0
 276.251 137.939 276.306 140.489 276.415 143 c 1
 429 143 l 2
 436.158 143 442.325 148.842 442.325 156 c 2
 442.325 326.3 l 2
 442.325 332.808 435.509 339.625 429.325 339.625 c 2
 221 339.625 l 1
 221 -169 l 2
 221 -207.905 185.426 -227.214 149.763 -227.214 c 0
 113.925 -227.214 78 -207.714 78 -169 c 2
 78 637 l 2xf4
221 635.7 m 2
 221 457.6 l 1
 402.675 457.6 l 2
 409.833 457.6 416 463.442 416 470.6 c 2
 416 638.056 l 2
 416 644.563 409.184 651.381 403 651.381 c 2
 234.162 651.381 l 2
 226.005 651.381 220.996 644.532 220.996 636.104 c 0
 221 635.7 l 2
EndSplineSet
Validated: 1
EndChar
